<svg width="15" height="15" viewBox="0 0 15 15" fill="none" xmlns="http://www.w3.org/2000/svg">
<g clip-path="url(#clip0_6_771)">
<path d="M14.4736 6.50008C13.9013 6.40481 10.9792 6.05999 10.4677 6.02325C10.0795 5.99533 9.03709 5.83247 9.70474 4.97404C11.0427 2.81753 10.7567 1.70492 10.3116 1.00557C9.93879 0.419752 8.81754 0.242594 8.56023 1.63587C8.2989 3.05105 7.48951 3.64997 7.00553 4.21622C6.02314 5.36586 3.98209 7.64474 3.98209 7.64474V13.3673C3.98209 13.3673 8.43202 14.3071 9.51396 14.4165C10.5197 14.5181 11.3302 14.089 11.807 13.5168C12.3671 12.8448 13.9599 9.51573 14.2828 8.7892C15.3661 7.80848 15.0459 6.59548 14.4736 6.50008Z" fill="#3EA8FF"/>
<path d="M2.50342 7.33167H0V14.1981H2.50342V7.33167Z" fill="#3EA8FF"/>
</g>
<defs>
<clipPath id="clip0_6_771">
<rect width="15" height="15" fill="white"/>
</clipPath>
</defs>
</svg>
