<svg width="28" height="30" viewBox="0 0 28 30" fill="none" xmlns="http://www.w3.org/2000/svg">
<path d="M25.4806 15.4982L13.8218 27.1571C13.4591 27.5198 12.9664 27.7239 12.4532 27.7239H4.4424C4.19865 27.7239 3.93967 27.6661 3.68256 27.5495C3.42691 27.4338 3.17695 27.2599 2.96437 27.0463C2.74787 26.8307 2.57109 26.5784 2.45396 26.3203C2.33596 26.0623 2.2776 25.8033 2.2776 25.5586V17.5483C2.2776 17.0351 2.48121 16.5424 2.84437 16.1788L16.1801 2.84305C16.3713 2.65286 16.5872 2.51329 16.8195 2.41872C17.1674 2.27727 17.5526 2.24094 17.9186 2.3126C18.2856 2.38432 18.6298 2.55776 18.9165 2.84305L23.8252 7.7528C24.0164 7.94393 24.1559 8.15997 24.2505 8.39171C24.392 8.7401 24.4279 9.1253 24.3567 9.49233C24.2849 9.85837 24.1115 10.2029 23.8252 10.4892L13.3324 20.9824C12.9864 21.3279 12.6209 21.5764 12.2553 21.7422C11.7053 21.9897 11.1576 22.0538 10.642 21.964C10.1263 21.8722 9.6375 21.6275 9.20361 21.1956C8.93022 20.9222 8.74055 20.6135 8.61721 20.2742C8.43416 19.7686 8.40791 19.189 8.54461 18.6202C8.68125 18.052 8.97949 17.5034 9.41672 17.0671L18.2723 8.211L16.6622 6.60108L7.80674 15.4572C7.31162 15.9522 6.92502 16.5257 6.65268 17.1393C6.24504 18.0606 6.09111 19.0756 6.23262 20.0697C6.30334 20.5657 6.44953 21.057 6.67559 21.5205C6.90211 21.9841 7.20844 22.4209 7.59363 22.8055C8.09109 23.304 8.66889 23.6853 9.2901 23.9329C10.221 24.3075 11.247 24.3783 12.229 24.146C13.2125 23.9147 14.1506 23.3857 14.9425 22.5929L25.4358 12.0996C25.8448 11.6905 26.155 11.2132 26.3609 10.7052C26.6696 9.94339 26.7461 9.11288 26.5922 8.3177C26.4393 7.522 26.0503 6.756 25.4358 6.14241L20.5269 1.23401C20.1179 0.824499 19.6404 0.514831 19.133 0.308346C18.3703 -0.000384087 17.5411 -0.0768489 16.745 0.0770183C15.9493 0.229948 15.1838 0.618893 14.5702 1.23401L1.23393 14.5697C0.444434 15.3592 0.000527389 16.4306 0.000527389 17.5474L0 25.5586C0.000996094 26.165 0.144375 26.7447 0.382852 27.2666C0.621797 27.7884 0.954844 28.2567 1.35434 28.6563C1.75383 29.0558 2.22217 29.3865 2.74254 29.623C3.26297 29.8586 3.83977 30.0001 4.4424 30.0001H12.4531C13.5704 30.0001 14.6418 29.5566 15.4317 28.7672L27.0901 17.1088L25.4806 15.4982Z" fill="#93A5B1"/>
</svg>
