<svg width="30" height="30" viewBox="0 0 30 30" fill="none" xmlns="http://www.w3.org/2000/svg">
<path d="M26.4806 15.4982L14.8218 27.1571C14.4591 27.5198 13.9664 27.7239 13.4532 27.7239H5.4424C5.19865 27.7239 4.93967 27.6661 4.68256 27.5495C4.42691 27.4338 4.17695 27.2599 3.96437 27.0463C3.74787 26.8307 3.57109 26.5784 3.45396 26.3203C3.33596 26.0623 3.2776 25.8033 3.2776 25.5586V17.5483C3.2776 17.0351 3.48121 16.5424 3.84437 16.1788L17.1801 2.84305C17.3713 2.65286 17.5872 2.51329 17.8195 2.41872C18.1674 2.27727 18.5526 2.24094 18.9186 2.3126C19.2856 2.38432 19.6298 2.55776 19.9165 2.84305L24.8252 7.7528C25.0164 7.94393 25.1559 8.15997 25.2505 8.39171C25.392 8.7401 25.4279 9.1253 25.3567 9.49233C25.2849 9.85837 25.1115 10.2029 24.8252 10.4892L14.3324 20.9824C13.9864 21.3279 13.6209 21.5764 13.2553 21.7422C12.7053 21.9897 12.1576 22.0538 11.642 21.964C11.1263 21.8722 10.6375 21.6275 10.2036 21.1956C9.93022 20.9222 9.74055 20.6135 9.61721 20.2742C9.43416 19.7686 9.40791 19.189 9.54461 18.6202C9.68125 18.052 9.97949 17.5034 10.4167 17.0671L19.2723 8.211L17.6622 6.60108L8.80674 15.4572C8.31162 15.9522 7.92502 16.5257 7.65268 17.1393C7.24504 18.0606 7.09111 19.0756 7.23262 20.0697C7.30334 20.5657 7.44953 21.057 7.67559 21.5205C7.90211 21.9841 8.20844 22.4209 8.59363 22.8055C9.09109 23.304 9.66889 23.6853 10.2901 23.9329C11.221 24.3075 12.247 24.3783 13.229 24.146C14.2125 23.9147 15.1506 23.3857 15.9425 22.5929L26.4358 12.0996C26.8448 11.6905 27.155 11.2132 27.3609 10.7052C27.6696 9.94339 27.7461 9.11288 27.5922 8.3177C27.4393 7.522 27.0503 6.756 26.4358 6.14241L21.5269 1.23401C21.1179 0.824499 20.6404 0.514831 20.133 0.308346C19.3703 -0.000384087 18.5411 -0.0768489 17.745 0.0770183C16.9493 0.229948 16.1838 0.618893 15.5702 1.23401L2.23393 14.5697C1.44443 15.3592 1.00053 16.4306 1.00053 17.5474L1 25.5586C1.001 26.165 1.14438 26.7447 1.38285 27.2666C1.6218 27.7884 1.95484 28.2567 2.35434 28.6563C2.75383 29.0558 3.22217 29.3865 3.74254 29.623C4.26297 29.8586 4.83977 30.0001 5.4424 30.0001H13.4531C14.5704 30.0001 15.6418 29.5566 16.4317 28.7672L28.0901 17.1088L26.4806 15.4982Z" fill="#93A5B1"/>
</svg>
