<svg width="30" height="30" viewBox="0 0 30 30" fill="none" xmlns="http://www.w3.org/2000/svg">
<g clip-path="url(#clip0_6_634)">
<path d="M26.9356 15.4982L15.2768 27.1571C14.9141 27.5198 14.4213 27.7239 13.9081 27.7239H5.89736C5.65361 27.7239 5.39462 27.6661 5.13751 27.5495C4.88187 27.4338 4.63191 27.2599 4.41933 27.0463C4.20283 26.8307 4.02605 26.5784 3.90892 26.3203C3.79091 26.0623 3.73255 25.8033 3.73255 25.5586V17.5483C3.73255 17.0351 3.93617 16.5424 4.29933 16.1788L17.6351 2.84305C17.8262 2.65286 18.0422 2.51329 18.2745 2.41872C18.6224 2.27727 19.0076 2.24094 19.3736 2.3126C19.7406 2.38432 20.0847 2.55776 20.3714 2.84305L25.2802 7.7528C25.4714 7.94393 25.6109 8.15997 25.7055 8.39171C25.8469 8.7401 25.8828 9.1253 25.8116 9.49233C25.7399 9.85837 25.5665 10.2029 25.2802 10.4892L14.7874 20.9824C14.4414 21.3279 14.0758 21.5764 13.7102 21.7422C13.1602 21.9897 12.6126 22.0538 12.0969 21.964C11.5813 21.8722 11.0925 21.6275 10.6586 21.1956C10.3852 20.9222 10.1955 20.6135 10.0722 20.2742C9.88912 19.7686 9.86287 19.189 9.99957 18.6202C10.1362 18.052 10.4344 17.5034 10.8717 17.0671L19.7273 8.211L18.1172 6.60108L9.26169 15.4572C8.76658 15.9522 8.37998 16.5257 8.10763 17.1393C7.69999 18.0606 7.54607 19.0756 7.68757 20.0697C7.7583 20.5657 7.90449 21.057 8.13054 21.5205C8.35707 21.9841 8.66339 22.4209 9.04859 22.8055C9.54605 23.304 10.1238 23.6853 10.7451 23.9329C11.676 24.3075 12.702 24.3783 13.684 24.146C14.6674 23.9147 15.6055 23.3857 16.3974 22.5929L26.8907 12.0996C27.2998 11.6905 27.6099 11.2132 27.8159 10.7052C28.1245 9.94339 28.2011 9.11288 28.0471 8.3177C27.8942 7.522 27.5052 6.756 26.8907 6.14241L21.9819 1.23401C21.5728 0.824499 21.0954 0.514831 20.5879 0.308346C19.8252 -0.000384087 18.996 -0.0768489 18.1999 0.0770183C17.4042 0.229948 16.6387 0.618893 16.0251 1.23401L2.68888 14.5697C1.89939 15.3592 1.45548 16.4306 1.45548 17.5474L1.45496 25.5586C1.45595 26.165 1.59933 26.7447 1.83781 27.2666C2.07675 27.7884 2.4098 28.2567 2.80929 28.6563C3.20878 29.0558 3.67712 29.3865 4.19749 29.623C4.71792 29.8586 5.29472 30.0001 5.89736 30.0001H13.9081C15.0253 30.0001 16.0967 29.5566 16.8867 28.7672L28.545 17.1088L26.9356 15.4982Z" fill="#93A5B1"/>
</g>
<defs>
<clipPath id="clip0_6_634">
<rect width="30" height="30" fill="white"/>
</clipPath>
</defs>
</svg>
