<svg width="30" height="30" viewBox="0 0 30 30" fill="none" xmlns="http://www.w3.org/2000/svg">
<path d="M12.4877 2.70304e-10C9.17576 4.96698e-08 5.99946 1.31694 3.65756 3.6611C1.31566 6.00526 0 9.18462 0 12.4998C0 15.8149 1.31566 18.9943 3.65756 21.3384C5.99946 23.6826 9.17576 24.9995 12.4877 24.9995C15.2258 24.9935 17.8845 24.078 20.0468 22.3967L27.1524 29.5091C27.307 29.6647 27.4907 29.7882 27.6931 29.8724C27.8955 29.9566 28.1125 30 28.3317 30C28.5508 30 28.7678 29.9566 28.9702 29.8724C29.1726 29.7882 29.3563 29.6647 29.5109 29.5091C29.6658 29.3557 29.7889 29.1731 29.8728 28.9718C29.9568 28.7705 30 28.5545 30 28.3363C30 28.1182 29.9568 27.9022 29.8728 27.7009C29.7889 27.4996 29.6658 27.3169 29.5109 27.1635L22.4053 20.0511C24.085 17.8866 24.9996 15.2254 25.0056 12.4846C24.9936 9.16934 23.6695 5.99392 21.3232 3.6539C18.9769 1.31387 15.7998 -2.17607e-05 12.4877 2.70304e-10ZM12.4877 3.32924C14.2997 3.32924 16.071 3.86708 17.5777 4.87475C19.0843 5.88242 20.2586 7.31466 20.952 8.99036C21.6454 10.6661 21.8268 12.5099 21.4733 14.2888C21.1198 16.0678 20.2473 17.7018 18.966 18.9843C17.6847 20.2668 16.0522 21.1402 14.2751 21.4941C12.4979 21.8479 10.6558 21.6663 8.98168 20.9722C7.3076 20.2781 5.87674 19.1027 4.87004 17.5946C3.86334 16.0866 3.32602 14.3135 3.32602 12.4998C3.31389 11.2921 3.54259 10.0941 3.99871 8.97605C4.45483 7.85794 5.12922 6.84216 5.98239 5.98817C6.83555 5.13418 7.85036 4.45914 8.96738 4.00257C10.0844 3.54601 11.2812 3.3171 12.4877 3.32924Z" fill="#93A5B1"/>
</svg>
