<svg width="30" height="30" viewBox="0 0 30 30" fill="none" xmlns="http://www.w3.org/2000/svg">
<g clip-path="url(#clip0_6_630)">
<path d="M28.9472 13.0001C27.8026 12.8096 21.9584 12.1199 20.9354 12.0464C20.1589 11.9906 18.0742 11.6649 19.4095 9.94802C22.0854 5.63499 21.5133 3.40978 20.6232 2.01108C19.8776 0.839444 17.6351 0.485127 17.1204 3.27167C16.5978 6.10204 14.979 7.29987 14.011 8.43237C12.0463 10.7317 7.96417 15.2894 7.96417 15.2894V26.7345C7.96417 26.7345 16.864 28.6142 19.0279 28.8328C21.0393 29.0361 22.6604 28.178 23.614 27.0336C24.7342 25.6895 27.9199 19.0314 28.5657 17.5783C30.7322 15.6169 30.0919 13.1909 28.9472 13.0001Z" fill="#93A5B1"/>
<path d="M5.00684 14.6631H0V28.3961H5.00684V14.6631Z" fill="#93A5B1"/>
</g>
<defs>
<clipPath id="clip0_6_630">
<rect width="30" height="30" fill="white"/>
</clipPath>
</defs>
</svg>
