<svg width="30" height="28" viewBox="0 0 30 28" fill="none" xmlns="http://www.w3.org/2000/svg">
<path d="M28.9473 11.863C27.8027 11.6724 21.9585 10.9828 20.9355 10.9093C20.159 10.8534 18.0742 10.5277 19.4095 8.81087C22.0855 4.49784 21.5134 2.27263 20.6233 0.873938C19.8776 -0.297702 17.6351 -0.652019 17.1205 2.13452C16.5978 4.9649 14.9791 6.16273 14.0111 7.29523C12.0463 9.5945 7.96423 14.1523 7.96423 14.1523V25.5974C7.96423 25.5974 16.8641 27.4771 19.028 27.6957C21.0394 27.899 22.6604 27.0409 23.6141 25.8965C24.7342 24.5523 27.9199 17.8943 28.5657 16.4412C30.7322 14.4798 30.0919 12.0537 28.9473 11.863Z" fill="#93A5B1"/>
<path d="M5.00684 13.526H0V27.259H5.00684V13.526Z" fill="#93A5B1"/>
</svg>
