<svg width="15" height="15" viewBox="0 0 15 15" fill="none" xmlns="http://www.w3.org/2000/svg">
<g clip-path="url(#clip0_6_775)">
<path d="M13.4678 7.74912L7.63837 13.5786C7.45702 13.7599 7.21066 13.8619 6.95405 13.8619H2.94867C2.8268 13.8619 2.6973 13.833 2.56875 13.7747C2.44093 13.7169 2.31595 13.6299 2.20966 13.5231C2.10141 13.4154 2.01302 13.2892 1.95445 13.1602C1.89545 13.0311 1.86627 12.9017 1.86627 12.7793V8.77416C1.86627 8.51755 1.96808 8.2712 2.14966 8.08938L8.81754 1.42153C8.91311 1.32643 9.02109 1.25664 9.13723 1.20936C9.31119 1.13864 9.50379 1.12047 9.68678 1.1563C9.87029 1.19216 10.0424 1.27888 10.1857 1.42153L12.6401 3.8764C12.7357 3.97197 12.8054 4.07998 12.8527 4.19585C12.9235 4.37005 12.9414 4.56265 12.9058 4.74617C12.8699 4.92918 12.7832 5.10145 12.6401 5.24459L7.39368 10.4912C7.22068 10.664 7.0379 10.7882 6.85512 10.8711C6.58011 10.9949 6.30627 11.0269 6.04846 10.982C5.79064 10.9361 5.54622 10.8138 5.32928 10.5978C5.19258 10.4611 5.09774 10.3067 5.03607 10.1371C4.94455 9.88431 4.93143 9.59448 4.99977 9.31012C5.0681 9.026 5.21722 8.75172 5.43583 8.53355L9.86364 4.1055L9.05859 3.30054L4.63084 7.72859C4.38328 7.97612 4.18998 8.26285 4.05381 8.56964C3.84999 9.03031 3.77303 9.53782 3.84378 10.0348C3.87914 10.2829 3.95224 10.5285 4.06526 10.7603C4.17853 10.9921 4.33169 11.2104 4.52429 11.4028C4.77302 11.652 5.06191 11.8427 5.37252 11.9664C5.83799 12.1538 6.35098 12.1892 6.84199 12.073C7.33371 11.9574 7.80275 11.6929 8.1987 11.2964L13.4454 6.04982C13.6499 5.84527 13.805 5.60659 13.9079 5.35258C14.0623 4.97169 14.1005 4.55644 14.0236 4.15885C13.9471 3.761 13.7526 3.378 13.4454 3.0712L10.9909 0.617005C10.7864 0.412249 10.5477 0.257415 10.294 0.154173C9.9126 -0.000192043 9.49802 -0.0384245 9.09996 0.0385091C8.70211 0.114974 8.31935 0.309447 8.01255 0.617005L1.34443 7.28486C0.949687 7.6796 0.727734 8.2153 0.727734 8.77369L0.72747 12.7793C0.727968 13.0825 0.799658 13.3723 0.918896 13.6333C1.03837 13.8942 1.20489 14.1284 1.40464 14.3281C1.60438 14.5279 1.83855 14.6932 2.09874 14.8115C2.35895 14.9293 2.64735 15 2.94867 15H6.95402C7.51266 15 8.04835 14.7783 8.44333 14.3836L14.2725 8.55438L13.4678 7.74912Z" fill="#3EA8FF"/>
</g>
<defs>
<clipPath id="clip0_6_775">
<rect width="15" height="15" fill="white"/>
</clipPath>
</defs>
</svg>
