<svg width="14" height="15" viewBox="0 0 14 15" fill="none" xmlns="http://www.w3.org/2000/svg">
<path d="M7.8326 14.0617H6.29075C5.79736 14.0617 5.30396 13.7533 5.18062 13.2599L4.81057 12.2115L4.7489 12.1498L4.13216 12.6432C3.63877 13.0132 3.02203 12.9515 2.59031 12.5198L1.60352 11.533C1.17181 11.1013 1.17181 10.4846 1.48018 9.99119L1.91189 9.37445V9.31278L2.09692 8.75771L1.91189 9.2511L0.863436 8.94273C0.370044 8.81938 0 8.32599 0 7.8326V6.29075C0 5.79736 0.30837 5.30396 0.801762 5.18062L1.85022 4.81057L1.91189 4.7489L1.48018 4.07048C1.11013 3.63877 1.17181 2.96035 1.60352 2.52863L2.59031 1.54185C3.02203 1.17181 3.63877 1.11013 4.07048 1.48018L4.68722 1.91189H4.7489L5.11894 0.863436C5.24229 0.370044 5.73568 0 6.22907 0H7.77093C8.26432 0 8.75771 0.30837 8.88106 0.801762L9.2511 1.85022L9.31278 1.91189L9.92952 1.4185C10.4229 1.04846 11.0396 1.11013 11.4714 1.54185L12.4581 2.52863C12.8899 2.96035 12.8899 3.57709 12.5815 4.07048L12.1498 4.68722V4.7489L13.1982 5.11894C13.6916 5.24229 14 5.73568 14 6.22907V7.77093C14 8.26432 13.6916 8.75771 13.1982 8.88106L12.1498 9.18943L12.0881 9.2511L12.5815 9.86784C12.9515 10.3612 12.8899 10.978 12.4581 11.4097L11.4714 12.3965C11.0396 12.8282 10.4229 12.8282 9.92952 12.5198L9.31278 12.0881H9.2511L8.88106 13.1982C8.75771 13.6916 8.32599 14.0617 7.8326 14.0617ZM4.7489 11.0396C4.93392 11.0396 5.11894 11.1013 5.30397 11.163C5.55066 11.2863 5.79736 11.533 5.85903 11.8414L6.22907 12.8899L6.29075 12.9515H7.8326C7.8326 12.9515 7.89427 12.9515 7.89427 12.8899L8.26432 11.8414L8.44934 11.4714C8.81938 10.978 9.55947 10.8546 10.1145 11.2247L10.7313 11.6564H10.793L11.7797 10.6696V10.6079L11.348 9.99119L11.163 9.62115C10.978 9.00441 11.2863 8.32599 11.9031 8.14097L12.9515 7.77093L13.0132 7.70925V6.1674C13.0132 6.1674 13.0132 6.10573 12.9515 6.10573L11.9031 5.73568C11.7797 5.67401 11.6564 5.61234 11.5947 5.55066C11.1013 5.18062 10.978 4.44053 11.348 3.88546L11.7797 3.26872V3.20705L10.7313 2.34361H10.6696L10.0529 2.77533C9.55947 3.20705 8.81938 3.0837 8.38767 2.59031C8.32599 2.46696 8.20264 2.34361 8.20264 2.22026L7.8326 1.17181L7.77093 1.11013H6.22907C6.22907 1.11013 6.1674 1.11013 6.1674 1.17181L5.85903 2.22026L5.67401 2.59031C5.30397 3.0837 4.56388 3.20705 4.00881 2.837L3.39207 2.40529H3.3304L2.34361 3.3304V3.39207L2.77533 4.00881L2.96035 4.37885C3.14537 4.99559 2.837 5.67401 2.22026 5.85903L1.17181 6.22907L1.11013 6.29075V7.8326C1.11013 7.8326 1.11013 7.89427 1.17181 7.89427L2.22026 8.26432L2.59031 8.44934C3.0837 8.81938 3.20705 9.55947 2.837 10.1145L2.40529 10.7313V10.793L3.3304 11.7181H3.39207L4.00881 11.2863L4.37885 11.1013C4.5022 11.0396 4.62555 11.0396 4.7489 11.0396Z" fill="#3EA8FF"/>
<path d="M8.81951 5.30394C7.8944 4.37883 6.35255 4.37883 5.42744 5.30394C4.99572 5.73566 4.74902 6.3524 4.74902 7.03081C4.74902 8.38764 5.85916 9.4361 7.15431 9.4361C7.77105 9.4361 8.38779 9.1894 8.88118 8.75768C9.74462 7.7709 9.74462 6.22905 8.81951 5.30394ZM8.01775 7.95592C7.52435 8.44931 6.66092 8.44931 6.16753 7.95592C5.92083 7.70923 5.79748 7.33918 5.79748 7.03081C5.79748 6.29072 6.41422 5.73566 7.09264 5.73566C7.46268 5.73566 7.77105 5.85901 8.01775 6.1057L8.07942 6.16738C8.57281 6.59909 8.57281 7.46253 8.01775 7.95592Z" fill="#3EA8FF"/>
</svg>
