<svg width="14" height="14" viewBox="0 0 14 14" fill="none" xmlns="http://www.w3.org/2000/svg">
<path d="M6.64397 14L1.3014 13.9289C0.547956 13.9289 0 13.2893 0 12.4365L0.0684946 1.42132C0.0684946 0.639594 0.684945 0 1.43838 0L6.78095 0.0710659C7.19192 0.0710659 7.53439 0.426396 7.53439 0.852792C7.53439 1.27919 7.19192 1.63452 6.78095 1.63452L1.57537 1.56345L1.43838 12.3655L6.64397 12.4365C7.05493 12.4365 7.3974 12.7919 7.3974 13.2183C7.3974 13.6447 7.05493 14 6.64397 14Z" fill="#3EA8FF"/>
<path d="M9.38402 11.2284C9.17854 11.2284 8.97306 11.1573 8.83607 10.9441C8.63058 10.6599 8.63058 10.1624 8.97306 9.9492L11.3019 8.10149L5.00037 8.03042C4.58941 8.03042 4.31543 7.67509 4.31543 7.31976C4.31543 6.96443 4.6579 6.6091 5.00037 6.6091L11.3019 6.68017L9.04155 4.76139C8.76757 4.47712 8.69908 4.05072 8.90456 3.76646C9.17854 3.4822 9.58951 3.41113 9.86348 3.62433L13.6992 6.8223L13.7677 6.89336L13.8362 6.96443C13.9732 7.10656 14.0416 7.24869 13.9732 7.46189C13.9732 7.67509 13.9047 7.81722 13.7677 7.95935L13.6992 8.03042L13.6307 8.10149L9.72649 11.2284C9.658 11.1573 9.52101 11.2284 9.38402 11.2284Z" fill="#3EA8FF"/>
</svg>
