<svg width="151" height="20" viewBox="0 0 151 20" fill="none" xmlns="http://www.w3.org/2000/svg">
<path d="M23.448 8.92001C23.448 9.41601 23.424 9.91201 23.376 10.408C23.344 10.888 23.304 11.376 23.256 11.872H23.304C23.464 11.648 23.624 11.424 23.784 11.2C23.96 10.976 24.136 10.752 24.312 10.528C24.488 10.304 24.672 10.088 24.864 9.88001L28.536 5.89601H32.568L27.36 11.584L32.88 19H28.752L24.984 13.696L23.448 14.92V19H19.872V0.76001H23.448V8.92001Z" fill="#111111"/>
<path d="M46.6588 12.424C46.6588 13.512 46.5068 14.48 46.2028 15.328C45.9148 16.176 45.4908 16.896 44.9308 17.488C44.3868 18.064 43.7228 18.504 42.9388 18.808C42.1548 19.096 41.2668 19.24 40.2748 19.24C39.3628 19.24 38.5148 19.096 37.7308 18.808C36.9628 18.504 36.2988 18.064 35.7388 17.488C35.1788 16.896 34.7388 16.176 34.4188 15.328C34.1148 14.48 33.9628 13.512 33.9628 12.424C33.9628 10.968 34.2188 9.74401 34.7308 8.75201C35.2428 7.74401 35.9788 6.97601 36.9388 6.44801C37.8988 5.92001 39.0348 5.65601 40.3468 5.65601C41.5788 5.65601 42.6668 5.92001 43.6108 6.44801C44.5548 6.97601 45.2988 7.74401 45.8428 8.75201C46.3868 9.74401 46.6588 10.968 46.6588 12.424ZM37.6108 12.424C37.6108 13.288 37.6988 14.016 37.8748 14.608C38.0668 15.184 38.3628 15.624 38.7628 15.928C39.1628 16.216 39.6828 16.36 40.3228 16.36C40.9628 16.36 41.4748 16.216 41.8588 15.928C42.2588 15.624 42.5468 15.184 42.7228 14.608C42.9148 14.016 43.0108 13.288 43.0108 12.424C43.0108 11.56 42.9148 10.84 42.7228 10.264C42.5468 9.68801 42.2588 9.25601 41.8588 8.96801C41.4588 8.68001 40.9388 8.53601 40.2988 8.53601C39.3548 8.53601 38.6668 8.86401 38.2348 9.52001C37.8188 10.16 37.6108 11.128 37.6108 12.424Z" fill="#111111"/>
<path d="M57.0542 5.65601C58.4622 5.65601 59.5902 6.04001 60.4382 6.80801C61.2862 7.56001 61.7102 8.77601 61.7102 10.456V19H58.1342V11.344C58.1342 10.4 57.9662 9.69601 57.6302 9.23201C57.2942 8.75201 56.7582 8.51201 56.0222 8.51201C54.9342 8.51201 54.1902 8.88801 53.7902 9.64001C53.3902 10.376 53.1902 11.44 53.1902 12.832V19H49.6142V5.89601H52.3502L52.8302 7.57601H53.0222C53.3102 7.12801 53.6622 6.76801 54.0782 6.49601C54.4942 6.20801 54.9582 6.00001 55.4702 5.87201C55.9822 5.72801 56.5102 5.65601 57.0542 5.65601Z" fill="#111111"/>
<path d="M75.1556 14.416C75.0916 14.144 74.9956 13.744 74.8676 13.216C74.7556 12.672 74.6276 12.096 74.4836 11.488C74.3396 10.864 74.2036 10.296 74.0756 9.78401C73.9476 9.25601 73.8596 8.87201 73.8116 8.63201H73.7156C73.6676 8.87201 73.5796 9.25601 73.4516 9.78401C73.3396 10.296 73.2116 10.864 73.0676 11.488C72.9236 12.096 72.7876 12.672 72.6596 13.216C72.5316 13.76 72.4356 14.176 72.3716 14.464L71.3156 19H67.4756L63.7556 5.89601H67.3076L68.8196 11.704C68.9316 12.104 69.0276 12.584 69.1076 13.144C69.2036 13.704 69.2916 14.248 69.3716 14.776C69.4516 15.288 69.5076 15.696 69.5396 16H69.6356C69.6516 15.776 69.6836 15.48 69.7316 15.112C69.7796 14.728 69.8356 14.336 69.8996 13.936C69.9796 13.536 70.0436 13.176 70.0916 12.856C70.1556 12.52 70.2036 12.296 70.2356 12.184L71.8436 5.89601H75.7796L77.3156 12.184C77.3796 12.408 77.4516 12.768 77.5316 13.264C77.6276 13.76 77.7076 14.264 77.7716 14.776C77.8516 15.288 77.8916 15.696 77.8916 16H77.9876C78.0196 15.728 78.0756 15.336 78.1556 14.824C78.2356 14.296 78.3236 13.744 78.4196 13.168C78.5316 12.592 78.6436 12.104 78.7556 11.704L80.3156 5.89601H83.8196L80.0516 19H76.1636L75.1556 14.416Z" fill="#111111"/>
<path d="M93.3823 5.65601C94.7903 5.65601 95.9183 6.04001 96.7663 6.80801C97.6143 7.56001 98.0383 8.77601 98.0383 10.456V19H94.4623V11.344C94.4623 10.4 94.2943 9.69601 93.9583 9.23201C93.6223 8.75201 93.0863 8.51201 92.3503 8.51201C91.2623 8.51201 90.5183 8.88801 90.1183 9.64001C89.7183 10.376 89.5183 11.44 89.5183 12.832V19H85.9423V5.89601H88.6783L89.1583 7.57601H89.3503C89.6383 7.12801 89.9903 6.76801 90.4063 6.49601C90.8223 6.20801 91.2863 6.00001 91.7983 5.87201C92.3103 5.72801 92.8383 5.65601 93.3823 5.65601Z" fill="#111111"/>
<path d="M113.62 12.424C113.62 13.512 113.468 14.48 113.164 15.328C112.876 16.176 112.452 16.896 111.892 17.488C111.348 18.064 110.684 18.504 109.9 18.808C109.116 19.096 108.228 19.24 107.236 19.24C106.324 19.24 105.476 19.096 104.692 18.808C103.924 18.504 103.26 18.064 102.7 17.488C102.14 16.896 101.7 16.176 101.38 15.328C101.076 14.48 100.924 13.512 100.924 12.424C100.924 10.968 101.18 9.74401 101.692 8.75201C102.204 7.74401 102.94 6.97601 103.9 6.44801C104.86 5.92001 105.996 5.65601 107.308 5.65601C108.54 5.65601 109.628 5.92001 110.572 6.44801C111.516 6.97601 112.26 7.74401 112.804 8.75201C113.348 9.74401 113.62 10.968 113.62 12.424ZM104.572 12.424C104.572 13.288 104.66 14.016 104.836 14.608C105.028 15.184 105.324 15.624 105.724 15.928C106.124 16.216 106.644 16.36 107.284 16.36C107.924 16.36 108.436 16.216 108.82 15.928C109.22 15.624 109.508 15.184 109.684 14.608C109.876 14.016 109.972 13.288 109.972 12.424C109.972 11.56 109.876 10.84 109.684 10.264C109.508 9.68801 109.22 9.25601 108.82 8.96801C108.42 8.68001 107.9 8.53601 107.26 8.53601C106.316 8.53601 105.628 8.86401 105.196 9.52001C104.78 10.16 104.572 11.128 104.572 12.424Z" fill="#111111"/>
<path d="M122.095 16.384C122.495 16.384 122.879 16.344 123.247 16.264C123.615 16.184 123.983 16.088 124.351 15.976V18.64C123.967 18.8 123.487 18.936 122.911 19.048C122.351 19.176 121.735 19.24 121.063 19.24C120.279 19.24 119.575 19.112 118.951 18.856C118.343 18.6 117.855 18.16 117.487 17.536C117.135 16.896 116.959 16.016 116.959 14.896V8.58401H115.255V7.07201L117.223 5.87201L118.255 3.11201H120.535V5.89601H124.207V8.58401H120.535V14.896C120.535 15.392 120.679 15.768 120.967 16.024C121.255 16.264 121.631 16.384 122.095 16.384Z" fill="#111111"/>
<path d="M132.381 5.65601C133.597 5.65601 134.637 5.88801 135.501 6.35201C136.381 6.81601 137.061 7.48801 137.541 8.36801C138.021 9.24801 138.261 10.328 138.261 11.608V13.336H129.813C129.845 14.344 130.141 15.136 130.701 15.712C131.277 16.288 132.069 16.576 133.077 16.576C133.925 16.576 134.693 16.496 135.381 16.336C136.069 16.16 136.781 15.896 137.517 15.544V18.304C136.877 18.624 136.197 18.856 135.477 19C134.773 19.16 133.917 19.24 132.909 19.24C131.597 19.24 130.437 19 129.429 18.52C128.421 18.024 127.629 17.28 127.053 16.288C126.477 15.296 126.189 14.048 126.189 12.544C126.189 11.008 126.445 9.73601 126.957 8.72801C127.485 7.70401 128.213 6.93601 129.141 6.42401C130.069 5.91201 131.149 5.65601 132.381 5.65601ZM132.405 8.20001C131.717 8.20001 131.141 8.42401 130.677 8.87201C130.229 9.32001 129.965 10.016 129.885 10.96H134.901C134.901 10.432 134.805 9.96001 134.613 9.54401C134.437 9.12801 134.165 8.80001 133.797 8.56001C133.429 8.32001 132.965 8.20001 132.405 8.20001Z" fill="#111111"/>
<path d="M150.305 15.112C150.305 15.992 150.097 16.744 149.681 17.368C149.265 17.976 148.641 18.44 147.809 18.76C146.977 19.08 145.945 19.24 144.713 19.24C143.801 19.24 143.017 19.176 142.361 19.048C141.705 18.936 141.049 18.744 140.393 18.472V15.52C141.097 15.84 141.857 16.104 142.673 16.312C143.489 16.52 144.209 16.624 144.833 16.624C145.537 16.624 146.033 16.52 146.321 16.312C146.625 16.104 146.777 15.832 146.777 15.496C146.777 15.272 146.713 15.072 146.585 14.896C146.473 14.72 146.217 14.52 145.817 14.296C145.417 14.072 144.793 13.784 143.945 13.432C143.129 13.08 142.457 12.736 141.929 12.4C141.401 12.048 141.009 11.632 140.753 11.152C140.497 10.656 140.369 10.04 140.369 9.30401C140.369 8.08801 140.841 7.17601 141.785 6.56801C142.729 5.96001 143.985 5.65601 145.553 5.65601C146.369 5.65601 147.145 5.73601 147.881 5.89601C148.617 6.05601 149.377 6.32001 150.161 6.68801L149.081 9.25601C148.649 9.06401 148.233 8.89601 147.833 8.75201C147.433 8.60801 147.041 8.49601 146.657 8.41601C146.289 8.33601 145.905 8.29601 145.505 8.29601C144.977 8.29601 144.577 8.36801 144.305 8.51201C144.049 8.65601 143.921 8.87201 143.921 9.16001C143.921 9.36801 143.985 9.56001 144.113 9.73601C144.257 9.89601 144.521 10.072 144.905 10.264C145.305 10.456 145.889 10.712 146.657 11.032C147.409 11.336 148.057 11.656 148.601 11.992C149.145 12.312 149.561 12.72 149.849 13.216C150.153 13.696 150.305 14.328 150.305 15.112Z" fill="#111111"/>
<path fill-rule="evenodd" clip-rule="evenodd" d="M3.84032 1.00002H15V19H0V4.78125L3.84032 1.00002ZM4.65968 3.00002L2 5.61878V17H13V3.00002H4.65968Z" fill="#3EA8FF"/>
<path d="M5 4.00002V5.00002C5 5.5523 4.55228 6.00002 4 6.00002H3" stroke="#3EA8FF"/>
</svg>
