<svg width="40" height="40" viewBox="0 0 40 40" fill="none" xmlns="http://www.w3.org/2000/svg">
<rect width="40" height="40" fill="#D9D9D9"/>
<path d="M24.22 17.8H22.7V15.24H24.22V17.8ZM24.22 22.46H22.7V19.92H24.22V22.46ZM15.82 19.92H17.26V22.46H15.82V19.92ZM20.72 19.92V22.46H19.24V19.92H20.72ZM19.24 17.8V15.24H20.72V17.8H19.24ZM15.82 15.24H17.26V17.8H15.82V15.24ZM13.72 17.8H11.04V19.92H13.72V22.46H11.34V24.58H28.72V22.46H26.4V19.92H29V17.8H26.4V15.24H28.28V13.14H16.28C16.58 12.68 16.84 12.22 17.06 11.74L14.74 11.06C13.86 12.92 12.28 14.74 10.6 15.84C11.14 16.22 12.1 16.98 12.54 17.4C12.94 17.1 13.32 16.74 13.72 16.36V17.8ZM13.1 29.76C14.08 28.72 14.94 27.08 15.38 25.56L13.08 25C12.62 26.46 11.72 28 10.84 28.84L13.1 29.76ZM16.66 25.7C16.88 26.92 17.04 28.56 17.04 29.52L19.36 29.18C19.34 28.24 19.1 26.66 18.86 25.44L16.66 25.7ZM20.62 25.74C21.06 26.96 21.52 28.58 21.64 29.54L24.02 29.08C23.84 28.1 23.34 26.54 22.86 25.36L20.62 25.74ZM24.58 25.64C25.46 26.92 26.52 28.68 26.94 29.74L29.38 28.92C28.88 27.82 27.76 26.14 26.86 24.92L24.58 25.64Z" fill="black"/>
</svg>
