<?xml version="1.0" encoding="UTF-8"?> <svg xmlns="http://www.w3.org/2000/svg" width="20" height="20" viewBox="0 0 20 20" fill="none"><path d="M19.9922 10.0391C19.9922 13.2656 19.9922 16.4922 20 19.7188C20 19.9531 19.9531 20 19.7188 20C13.2422 19.9922 6.75781 19.9922 0.28125 20C0.046875 20 0 19.9531 0 19.7188C0.0078125 13.2422 0.0078125 6.75781 0 0.28125C0 0.046875 0.046875 0 0.28125 0C6.75781 0.0078125 13.2422 0.0078125 19.7188 0C19.9531 0 20 0.046875 20 0.28125C19.9922 3.53125 19.9922 6.78906 19.9922 10.0391ZM7.22656 12.2891C6.77344 13.1641 6.32812 14.0312 5.875 14.9062C5.92188 14.9297 5.96875 14.9531 6.01562 14.9766C6.45312 14.1094 6.89844 13.2422 7.33594 12.375C7.35156 12.3437 7.36719 12.3125 7.38281 12.2812C7.53125 12.1172 7.54688 11.8594 7.79688 11.7031C7.82031 11.8516 7.70312 12.0078 7.86719 12.0703C7.90625 12.0859 7.96875 12.2109 7.98438 12.1016C8.01562 11.8047 8.23438 11.9453 8.35156 11.9453C8.70312 11.9453 9.04688 11.9141 9.36719 11.75C9.60938 11.6328 9.71094 11.5156 9.36719 11.3672C9.71875 11.2188 10.0547 11.0781 10.2891 10.6641C9.82031 10.8125 9.44531 10.9609 9.05469 10.7734C9.25 10.7109 9.44531 10.6641 9.64062 10.5938C10.8281 10.1875 11.5078 9.25781 11.9922 8.1875C12.1094 7.92188 12.2734 7.75781 12.4453 7.57031C12.5781 7.42969 12.625 7.33594 12.3203 7.30469C12.8203 7.0625 13.0547 6.65625 13.2891 6.25C13.375 6.09375 13.3828 6.00781 13.1641 6.0625C13.1406 6.03906 13.125 6.01562 13.1016 5.98438C13.9141 5.32031 14.5312 4.51562 14.8672 3.51562C15.0156 3.07031 15.0391 2.61719 14.7578 2.20312C14.5156 1.84375 14.2578 1.77344 13.8984 2C13.6172 2.17969 13.3438 2.38281 13.0859 2.60156C11.5859 3.92188 10.2812 5.41406 9.17969 7.08594C8.67969 7.84375 8.22656 8.63281 7.96875 9.51562C7.78906 9.78125 7.78906 10.1094 7.64844 10.3828C7.46875 10.3438 7.45312 10.0781 7.21094 10.0703C7.26562 10.2031 7.3125 10.3203 7.35156 10.4375C7.39844 10.5703 7.4375 10.7109 7.46094 10.8516C7.5625 11.3438 7.54688 11.3594 7.05469 11.2422C7.03906 11.2422 7.02344 11.2656 7 11.2734C7.03125 11.3047 7.0625 11.5 7.07031 11.6094C7.07031 11.6328 7.10938 11.6797 7.13281 11.6875C7.64844 11.7813 7.29688 12.0547 7.25781 12.2656L7.22656 12.2891ZM14.0469 17.0547C14.0469 16.7656 14.0547 16.4844 14.0469 16.1953C14.0391 16.0859 14.125 15.8906 13.9141 15.8984C13.7422 15.9062 13.8125 16.0781 13.8125 16.1797C13.7891 16.8984 13.7891 16.8984 13.0625 16.8984C12.4766 16.8984 12.4766 16.8984 12.4766 16.3359C12.4766 16.2422 12.4766 16.1562 12.4766 16.0625C12.4766 15.9766 12.4609 15.8984 12.3594 15.8984C12.2578 15.8906 12.2422 15.9766 12.2422 16.0547C12.2422 16.7031 12.2422 17.3594 12.2422 18.0078C12.2422 18.0859 12.2344 18.1797 12.3438 18.1875C12.4766 18.1953 12.4766 18.0938 12.4766 18C12.4766 17.7812 12.4766 17.5547 12.4844 17.3359C12.4844 17.2656 12.4688 17.1406 12.5547 17.1406C12.9453 17.125 13.3516 17.0625 13.7188 17.1641C13.9375 17.2188 13.7734 17.5859 13.8125 17.8047C13.8203 17.8672 13.8125 17.9375 13.8125 18C13.8203 18.0859 13.7891 18.1953 13.9375 18.1953C14.0703 18.1875 14.0547 18.0859 14.0547 18C14.0469 17.6797 14.0469 17.3672 14.0469 17.0547ZM15.3125 15.8828C15.1172 15.8828 14.9219 15.8906 14.7266 15.8828C14.5781 15.875 14.5234 15.9453 14.5234 16.0938C14.5312 16.7266 14.5234 17.3672 14.5234 18C14.5234 18.0938 14.5312 18.1875 14.6562 18.1875C15.0859 18.1875 15.5156 18.1875 15.9375 18.1875C16.0078 18.1875 16.0625 18.1484 16.0625 18.0703C16.0625 17.9922 16 17.9609 15.9297 17.9609C15.7187 17.9609 15.5156 17.9609 15.3047 17.9609C14.7188 17.9609 14.7266 17.9609 14.75 17.375C14.7578 17.1641 14.8359 17.1094 15.0312 17.1172C15.25 17.1328 15.4687 17.1172 15.6953 17.1172C15.7734 17.1172 15.8672 17.125 15.8594 17.0078C15.8594 16.9062 15.7734 16.8984 15.6953 16.8984C15.4844 16.8984 15.2812 16.8828 15.0703 16.9062C14.7578 16.9453 14.7344 16.7734 14.7578 16.5312C14.7734 16.3281 14.6797 16.0703 15.0625 16.1016C15.3359 16.125 15.6094 16.1094 15.8828 16.1094C15.9531 16.1094 16.0234 16.1016 16.0312 16.0234C16.0469 15.9219 15.9766 15.8906 15.8906 15.8906C15.7031 15.8828 15.5078 15.8828 15.3125 15.8828ZM6.39062 17.0469C6.39062 17.3359 6.38281 17.6172 6.39062 17.9062C6.39062 18.0078 6.3125 18.1797 6.49219 18.1875C6.71094 18.1953 6.625 18 6.625 17.8984C6.64844 17.3594 6.64062 17.3594 7.1875 17.3516C7.22656 17.3516 7.26562 17.3516 7.30469 17.3516C7.71875 17.3359 7.99219 17.0781 8.01562 16.6797C8.03906 16.2812 7.75781 15.9453 7.35156 15.9141C7.10938 15.8906 6.85938 15.9141 6.60938 15.8984C6.4375 15.8906 6.38281 15.9531 6.38281 16.125C6.39844 16.4219 6.39062 16.7344 6.39062 17.0469ZM6.10938 18.0469C5.82031 17.3672 5.53906 16.6719 5.23438 15.9844C5.15625 15.8047 5.01562 15.8828 4.95312 16.0312C4.67188 16.7031 4.39062 17.375 4.10938 18.0391C4.09375 18.0859 4.05469 18.1406 4.11719 18.1719C4.17969 18.2109 4.25 18.2031 4.29688 18.1562C4.34375 18.1016 4.39062 18.0234 4.39844 17.9531C4.47656 17.5391 4.73438 17.4688 5.125 17.4688C5.49219 17.4688 5.70312 17.5625 5.78906 17.9297C5.8125 18.0234 5.82812 18.1484 5.94531 18.1797C6.04688 18.2109 6.14844 18.2188 6.10938 18.0469ZM9.9375 18.1094C9.92969 18.0781 9.92969 18.0703 9.92188 18.0547C9.63281 17.3594 9.35156 16.6641 9.04688 15.9766C8.98438 15.8359 8.83594 15.8672 8.78125 16C8.49219 16.6797 8.21094 17.3594 7.92188 18.0469C7.89844 18.1016 7.88281 18.1484 7.9375 18.1797C8 18.2109 8.07031 18.2109 8.11719 18.1562C8.16406 18.0938 8.20312 18.0234 8.21875 17.9453C8.30469 17.5703 8.52344 17.4609 8.91406 17.4688C9.28906 17.4766 9.53906 17.5312 9.61719 17.9297C9.63281 18.0156 9.6875 18.0938 9.74219 18.1641C9.76562 18.1953 9.83594 18.1875 9.89062 18.1797C9.91406 18.1719 9.92969 18.125 9.9375 18.1094ZM10.2031 17.0469C10.2109 16.6719 10.3359 16.3516 10.6953 16.1875C11.0391 16.0312 11.3594 16.0859 11.6094 16.3828C11.6797 16.4609 11.7344 16.5156 11.8281 16.4219C11.9141 16.3359 11.8281 16.2812 11.7891 16.2266C11.6875 16.0938 11.5469 15.9844 11.3828 15.9375C10.9609 15.8125 10.5781 15.8828 10.2734 16.2109C9.92969 16.5781 9.86719 17.0156 10.0469 17.4766C10.2109 17.8906 10.5078 18.1641 10.9766 18.1953C11.3047 18.2188 11.5859 18.1016 11.8125 17.8516C11.8672 17.7891 11.9609 17.7188 11.8594 17.625C11.75 17.5312 11.7031 17.625 11.6406 17.6953C11.3828 17.9766 11.0703 18.0547 10.7266 17.8984C10.3672 17.7344 10.2188 17.4297 10.2031 17.0469Z" fill="#F4F5F5"></path><path d="M7.96094 9.52343C8.21875 8.64061 8.67188 7.85155 9.17188 7.09374C10.2734 5.42186 11.5781 3.92968 13.0781 2.60936C13.3281 2.39061 13.6016 2.18749 13.8906 2.0078C14.25 1.78124 14.5078 1.85155 14.75 2.21093C15.0312 2.62499 15.0078 3.07811 14.8594 3.52342C14.5234 4.52342 13.9063 5.32811 13.0938 5.99217C13.0391 6.02342 12.9531 5.98436 12.9219 6.10155C13.0078 6.09374 13.0781 6.07811 13.1484 6.0703C13.3672 6.01561 13.3594 6.10936 13.2734 6.2578C13.0469 6.66405 12.8125 7.0703 12.3047 7.31249C12.6094 7.34374 12.5625 7.43749 12.4297 7.57811C12.2578 7.76561 12.1016 7.92186 11.9766 8.1953C11.5 9.26561 10.8125 10.1953 9.625 10.6016C9.42969 10.6641 9.23437 10.7187 9.03906 10.7812C8.83594 10.7656 8.625 10.8047 8.42969 10.7109C8.5 10.5625 8.5625 10.4219 8.63281 10.2734C8.64844 10.2422 8.66406 10.2109 8.67969 10.1875C8.76562 10.0547 8.90625 9.93749 8.85938 9.72655C8.70312 9.82811 8.65625 9.97655 8.59375 10.1172C8.57812 10.1484 8.5625 10.1797 8.54688 10.2031C8.46094 10.3281 8.38281 10.4531 8.29687 10.5781C8.19531 10.2266 8.07812 9.87499 7.96094 9.52343ZM9.01562 9.64061C9.0625 9.59374 9.10156 9.53124 9.04688 9.49218C8.97656 9.43749 8.96094 9.53124 8.9375 9.57811C8.92188 9.61718 8.875 9.65624 8.92187 9.6953C8.96875 9.73436 8.99219 9.67186 9.01562 9.64061ZM9.5625 8.74999C9.85938 8.27343 10.1484 7.79686 10.4453 7.3203C10.1484 7.52343 9.625 8.34374 9.5625 8.74999Z" fill="#E77829"></path><path d="M8.45312 10.7109C8.64844 10.8047 8.85938 10.7656 9.0625 10.7812C9.45312 10.9687 9.82813 10.8203 10.2969 10.6719C10.0547 11.0859 9.72656 11.2266 9.375 11.375C9.71094 11.5156 9.60938 11.6328 9.375 11.7578C9.05469 11.9219 8.71094 11.9531 8.35938 11.9531C8.23438 11.9531 8.02344 11.8047 7.99219 12.1094C7.97656 12.2187 7.91406 12.0938 7.875 12.0781C7.71094 12.0156 7.83594 11.8594 7.80469 11.7109C7.55469 11.8594 7.53906 12.125 7.39062 12.2891C7.34375 12.2812 7.29688 12.2813 7.25 12.2734C7.29688 12.0625 7.64062 11.7891 7.125 11.6953C7.10156 11.6875 7.07031 11.6484 7.0625 11.6172C7.05469 11.5078 7.02344 11.3125 6.99219 11.2812C7.00781 11.2734 7.03125 11.25 7.04687 11.25C7.53906 11.375 7.5625 11.3594 7.45313 10.8594C7.42188 10.7187 7.38281 10.5859 7.34375 10.4453C7.30469 10.3281 7.25781 10.2109 7.20312 10.0781C7.44531 10.0859 7.46094 10.3516 7.64063 10.3906C7.78125 10.1172 7.78125 9.78125 7.96094 9.52344C8.07813 9.875 8.19531 10.2266 8.3125 10.5703C8.28906 10.6328 8.27344 10.6875 8.25 10.75C8.21875 10.7969 8.1875 10.8516 8.16406 10.8984C8.13281 10.9453 8.10938 11 8.07813 11.0469C7.98438 11.2266 7.82031 11.375 7.91406 11.625C8 11.4609 8.09375 11.2969 8.17969 11.125C8.20312 11.0781 8.22656 11.0312 8.25781 10.9922C8.28125 10.9453 8.3125 10.8906 8.33594 10.8438C8.375 10.8047 8.41406 10.7578 8.45312 10.7109Z" fill="#CD2638"></path><path d="M14.0469 17.0547C14.0469 17.3672 14.0469 17.6797 14.0469 17.9922C14.0469 18.0782 14.0625 18.1876 13.9297 18.1876C13.7812 18.1954 13.8125 18.0782 13.8047 17.9922C13.7969 17.9297 13.8125 17.8594 13.8047 17.7969C13.7656 17.5782 13.9297 17.211 13.7109 17.1563C13.3437 17.0626 12.9375 17.1251 12.5469 17.1329C12.4609 17.1329 12.4766 17.2579 12.4766 17.3282C12.4687 17.5469 12.4766 17.7735 12.4688 17.9922C12.4688 18.086 12.4687 18.1876 12.3359 18.1797C12.2266 18.1719 12.2344 18.0782 12.2344 18.0001C12.2344 17.3516 12.2344 16.6954 12.2344 16.0469C12.2344 15.961 12.25 15.8829 12.3516 15.8907C12.4531 15.8985 12.4688 15.9688 12.4688 16.0547C12.4688 16.1485 12.4688 16.2344 12.4688 16.3282C12.4688 16.8907 12.4688 16.8907 13.0547 16.8907C13.7812 16.8907 13.7812 16.8907 13.8047 16.1719C13.8047 16.0704 13.7344 15.8985 13.9062 15.8907C14.1172 15.8829 14.0391 16.0704 14.0391 16.1876C14.0547 16.4766 14.0469 16.7657 14.0469 17.0547Z" fill="#B01E1E"></path><path d="M15.3125 15.8828C15.5078 15.8828 15.7031 15.8828 15.8984 15.8828C15.9844 15.8828 16.0547 15.9219 16.0391 16.0156C16.0313 16.0938 15.9609 16.1016 15.8906 16.1016C15.6172 16.1016 15.3437 16.125 15.0703 16.0938C14.6953 16.0625 14.7812 16.3125 14.7656 16.5234C14.75 16.7578 14.7656 16.9297 15.0781 16.8984C15.2812 16.875 15.4922 16.8906 15.7031 16.8906C15.7812 16.8906 15.8672 16.8984 15.8672 17C15.8672 17.1094 15.7734 17.1016 15.7031 17.1094C15.4844 17.1094 15.2578 17.1172 15.0391 17.1094C14.8438 17.1016 14.7656 17.1563 14.7578 17.3672C14.7344 17.9531 14.7266 17.9531 15.3125 17.9531C15.5234 17.9531 15.7266 17.9531 15.9375 17.9531C16.0078 17.9531 16.0703 17.9766 16.0703 18.0625C16.0703 18.1406 16.0156 18.1797 15.9453 18.1797C15.5156 18.1797 15.0859 18.1797 14.6641 18.1797C14.5391 18.1797 14.5312 18.0859 14.5312 17.9922C14.5312 17.3594 14.5312 16.7187 14.5312 16.0859C14.5312 15.9375 14.5859 15.875 14.7344 15.875C14.9219 15.8906 15.1172 15.8828 15.3125 15.8828Z" fill="#B01E1E"></path><path d="M6.39062 17.0468C6.39062 16.7343 6.39843 16.4218 6.39062 16.1093C6.38281 15.9374 6.44531 15.8749 6.61718 15.8827C6.86718 15.8983 7.10937 15.8749 7.35937 15.8983C7.76562 15.9374 8.04687 16.2655 8.02343 16.664C7.99999 17.0624 7.72656 17.3202 7.31249 17.3358C7.27343 17.3358 7.23437 17.3358 7.19531 17.3358C6.64843 17.3437 6.65624 17.3437 6.63281 17.8827C6.62499 17.9921 6.71874 18.1874 6.49999 18.1718C6.32031 18.164 6.39843 17.9921 6.39843 17.8905C6.38281 17.6171 6.39062 17.328 6.39062 17.0468ZM7.00781 17.1171C7.10937 17.1171 7.18749 17.1171 7.26562 17.1171C7.59374 17.1249 7.74999 16.9452 7.74999 16.6405C7.75781 16.3202 7.60156 16.1249 7.25781 16.1171C7.12499 16.1171 6.99999 16.1249 6.86718 16.1093C6.68749 16.0937 6.60156 16.1562 6.61718 16.3515C6.62499 16.4843 6.63281 16.6093 6.61718 16.7421C6.58593 17.0624 6.71093 17.1952 7.00781 17.1171Z" fill="#B01E1E"></path><path d="M6.10935 18.0469C6.14841 18.2187 6.03903 18.2031 5.9531 18.1797C5.83591 18.1406 5.81247 18.0156 5.79685 17.9297C5.71091 17.5625 5.49997 17.4687 5.13278 17.4687C4.74216 17.4687 4.48435 17.5391 4.40622 17.9531C4.3906 18.0234 4.35153 18.1016 4.30466 18.1562C4.25778 18.2031 4.18747 18.2109 4.12497 18.1719C4.06247 18.1328 4.10153 18.0859 4.11716 18.0391C4.39841 17.3672 4.67185 16.6953 4.96091 16.0312C5.02341 15.8828 5.16403 15.8125 5.24216 15.9844C5.54685 16.6719 5.8281 17.3672 6.10935 18.0469ZM4.67185 17.25C4.98435 17.25 5.24216 17.25 5.53903 17.25C5.39841 16.8984 5.2656 16.5781 5.11716 16.2031C4.9531 16.5781 4.82028 16.8906 4.67185 17.25Z" fill="#B01E1E"></path><path d="M9.9375 18.1094C9.92187 18.1329 9.90625 18.1798 9.88281 18.1798C9.83594 18.1876 9.75781 18.1876 9.73437 18.1641C9.67969 18.0938 9.625 18.0157 9.60937 17.9298C9.53125 17.5235 9.28125 17.4766 8.90625 17.4688C8.51562 17.461 8.29687 17.5704 8.21094 17.9454C8.19531 18.0157 8.15625 18.0938 8.10938 18.1563C8.07031 18.211 7.99219 18.211 7.92969 18.1798C7.875 18.1485 7.89063 18.0938 7.91406 18.0469C8.20313 17.3673 8.48438 16.6798 8.77344 16.0001C8.82812 15.8673 8.97656 15.8282 9.03906 15.9766C9.34375 16.6641 9.625 17.3594 9.91406 18.0548C9.92969 18.0626 9.9375 18.0782 9.9375 18.1094ZM8.92969 16.2032C8.79688 16.5235 8.69531 16.7813 8.57813 17.0391C8.47656 17.2501 8.5625 17.2657 8.75 17.2735C9.39062 17.2969 9.39062 17.3048 9.14844 16.711C9.07812 16.5704 9.01562 16.4219 8.92969 16.2032Z" fill="#B01E1E"></path><path d="M10.2031 17.0469C10.2187 17.4297 10.3672 17.7422 10.7187 17.9062C11.0625 18.0703 11.375 17.9844 11.6328 17.7031C11.6953 17.6406 11.7422 17.5391 11.8516 17.6328C11.9531 17.7266 11.8672 17.7969 11.8047 17.8594C11.5859 18.1094 11.3047 18.2187 10.9687 18.2031C10.5 18.1719 10.2031 17.8984 10.0391 17.4844C9.85937 17.0234 9.92187 16.5859 10.2656 16.2187C10.5703 15.8906 10.9531 15.8203 11.375 15.9453C11.5391 15.9922 11.6797 16.0937 11.7812 16.2344C11.8203 16.2891 11.9062 16.3516 11.8203 16.4297C11.7266 16.5234 11.6719 16.4687 11.6016 16.3906C11.3516 16.0937 11.0234 16.0391 10.6875 16.1953C10.3359 16.3516 10.2109 16.6719 10.2031 17.0469Z" fill="#B01E1E"></path><path d="M7.33594 12.3828C6.89844 13.25 6.45313 14.1172 6.01563 14.9844C5.96875 14.9609 5.92188 14.9375 5.875 14.9141C6.32812 14.0391 6.77344 13.1719 7.22656 12.2969C7.25781 12.3203 7.29688 12.3516 7.33594 12.3828Z" fill="#D03949"></path><path d="M7.24219 12.2656C7.28906 12.2734 7.33594 12.2734 7.38281 12.2812C7.36719 12.3125 7.35156 12.3437 7.33594 12.375C7.29688 12.3437 7.26562 12.3125 7.22656 12.2812C7.22656 12.2891 7.24219 12.2656 7.24219 12.2656Z" fill="#D03949"></path><path d="M9.5625 8.75C9.625 8.34375 10.1484 7.51562 10.4453 7.32031C10.1484 7.79688 9.85938 8.27344 9.5625 8.75Z" fill="#F2F1F2"></path><path d="M8.45312 10.7109C8.41406 10.7578 8.375 10.7969 8.33594 10.8438C8.3125 10.8125 8.28125 10.7813 8.25781 10.75C8.28125 10.6875 8.29688 10.6328 8.32031 10.5703C8.40625 10.4453 8.48438 10.3203 8.57031 10.1953C8.60156 10.2188 8.63281 10.2422 8.66406 10.2656C8.58594 10.4219 8.51562 10.5703 8.45312 10.7109Z" fill="#F4F5F5"></path><path d="M8.61719 10.1172C8.67969 9.98438 8.72656 9.83594 8.88281 9.72656C8.92969 9.9375 8.78906 10.0469 8.70312 10.1875C8.67187 10.1641 8.64062 10.1406 8.61719 10.1172Z" fill="#F4F5F5"></path><path d="M13.1562 6.0625C13.0859 6.07031 13.0078 6.08594 12.9297 6.09375C12.9609 5.97656 13.0469 6.01562 13.1016 5.98438C13.1172 6.01562 13.1406 6.03906 13.1562 6.0625Z" fill="#F4F5F5"></path><path d="M8.92969 9.57042C8.96094 9.53136 8.96875 9.43761 9.03906 9.49229C9.09375 9.53136 9.05469 9.60167 9.00781 9.64073C8.98438 9.61729 8.96094 9.59386 8.92969 9.57042Z" fill="#F4F5F5"></path><path d="M9.0156 9.64063C8.99216 9.67188 8.96872 9.73438 8.91404 9.6875C8.86716 9.64844 8.91404 9.60938 8.92966 9.57031C8.96091 9.59375 8.98435 9.61719 9.0156 9.64063Z" fill="#F4F5F5"></path><path d="M8.70313 10.1875C8.6875 10.2187 8.67188 10.25 8.65625 10.2734C8.625 10.25 8.59375 10.2266 8.5625 10.2031C8.57812 10.1719 8.59375 10.1406 8.60937 10.1172C8.64062 10.1406 8.67188 10.1641 8.70313 10.1875Z" fill="#F4F5F5"></path><path d="M8.17966 11.1328C8.09373 11.2969 7.99998 11.4609 7.91404 11.6328C7.82029 11.3828 7.98435 11.2266 8.0781 11.0547C8.11716 11.0781 8.14841 11.1016 8.17966 11.1328Z" fill="#F4F5F5"></path><path d="M8.16406 10.9063C8.19531 10.8594 8.22656 10.8047 8.25 10.7578C8.27344 10.7891 8.30469 10.8203 8.32812 10.8516C8.30469 10.8984 8.27344 10.9531 8.25 11C8.22656 10.9609 8.19531 10.9375 8.16406 10.9063Z" fill="#F4F5F5"></path><path d="M8.07812 11.0469C8.10938 11 8.13281 10.9453 8.16406 10.8984C8.19531 10.9297 8.22656 10.9609 8.25 10.9922C8.22656 11.0391 8.20312 11.0859 8.17187 11.1328C8.14844 11.1016 8.11719 11.0781 8.07812 11.0469Z" fill="#F4F5F5"></path><path d="M7.00781 17.1171C6.70313 17.1952 6.58594 17.0624 6.625 16.7343C6.64063 16.6093 6.64063 16.4765 6.625 16.3437C6.60938 16.1562 6.6875 16.0858 6.875 16.1015C7 16.1171 7.13281 16.1015 7.26563 16.1093C7.60156 16.1171 7.75781 16.3124 7.75781 16.6327C7.75 16.9374 7.59375 17.1171 7.27344 17.1093C7.19531 17.1171 7.11719 17.1171 7.00781 17.1171Z" fill="#F2F1F2"></path><path d="M4.67188 17.25C4.82031 16.8906 4.95313 16.5781 5.10938 16.2031C5.26563 16.5781 5.39063 16.8984 5.53125 17.25C5.24219 17.25 4.98438 17.25 4.67188 17.25Z" fill="#F2F1F2"></path><path d="M8.92969 16.2031C9.01562 16.4141 9.07812 16.5625 9.14062 16.7109C9.38281 17.3047 9.38281 17.2969 8.74218 17.2734C8.55468 17.2656 8.46875 17.2422 8.57031 17.0391C8.69531 16.7891 8.79687 16.5234 8.92969 16.2031Z" fill="#F2F1F2"></path></svg> 