<?xml version="1.0" encoding="UTF-8"?> <svg xmlns="http://www.w3.org/2000/svg" width="30" height="30" viewBox="0 0 30 30" fill="none"><g clip-path="url(#clip0_51_33)"><path d="M29.1655 21.6508C28.2845 21.0087 27.5707 20.1575 27.0861 19.1712C26.6015 18.1848 26.3607 17.093 26.3846 15.9904V11.6037C26.3846 8.52619 25.1834 5.57475 23.0452 3.39864C20.907 1.22253 18.007 0 14.9831 0C11.9592 0 9.05918 1.22253 6.92097 3.39864C4.78277 5.57475 3.58154 8.52619 3.58154 11.6037V15.9904C3.5644 17.1206 3.29216 18.2316 2.78586 19.2376C2.27956 20.2436 1.55276 21.1177 0.661633 21.7923C0.377743 21.9893 0.168076 22.2787 0.0670203 22.613C-0.0340357 22.9472 -0.0204816 23.3065 0.10546 23.6319C0.212677 23.9593 0.417731 24.2444 0.691956 24.4473C0.96618 24.6503 1.29587 24.761 1.63494 24.7639H8.86518C9.12467 26.2259 9.87826 27.5496 10.9955 28.5057C12.1128 29.4619 13.5233 29.9904 14.9831 29.9998C16.4488 30.0129 17.8709 29.4925 18.9927 28.5324C20.1145 27.5723 20.8623 26.2358 21.101 24.7639H28.3312C28.7715 24.7567 29.1918 24.5754 29.5031 24.2585C29.8145 23.9416 29.9926 23.5139 29.9997 23.0658C30.005 22.7741 29.9296 22.4867 29.782 22.2365C29.6345 21.9863 29.4209 21.7833 29.1655 21.6508ZM14.9831 27.1413C14.2609 27.1105 13.5661 26.8513 12.9954 26.3998C12.4247 25.9484 12.0065 25.3271 11.799 24.6224H18.1672C17.9876 25.3431 17.577 25.9822 17.0002 26.4384C16.4234 26.8947 15.7136 27.142 14.9831 27.1413ZM4.84683 21.8772C5.89623 20.1463 6.45001 18.1516 6.44583 16.1178V11.5471C6.44583 9.23766 7.34631 7.02262 8.94956 5.38829C10.5528 3.75396 12.7278 2.83391 14.997 2.83017C17.257 2.85591 19.4174 3.78107 21.0156 5.40761C22.6138 7.03414 23.5228 9.2328 23.5481 11.5329V16.1036C23.5638 18.1347 24.1161 20.124 25.1471 21.863L4.84683 21.8772Z" fill="#3EA8FF"></path></g><defs><clipPath id="clip0_51_33"><rect width="30" height="30" fill="white"></rect></clipPath></defs></svg> 