<?xml version="1.0" encoding="UTF-8"?> <svg xmlns="http://www.w3.org/2000/svg" width="20" height="20" viewBox="0 0 20 20" fill="none"><path d="M19.9941 0H0.00585938C0.00262333 0 0 0.00262333 0 0.00585938V19.9941C0 19.9974 0.00262333 20 0.00585938 20H19.9941C19.9974 20 20 19.9974 20 19.9941V0.00585938C20 0.00262333 19.9974 0 19.9941 0Z" fill="#066DA5"></path><path d="M11.5625 9.57031H13.2031V8.08594H11.5625V9.57031ZM9.60935 9.57031H11.25V8.08594H9.60935V9.57031ZM7.69529 9.57031H9.33591V8.08594H7.69529V9.57031ZM5.78122 9.57031H7.38279V8.08594H5.78122V9.57031ZM3.8281 9.57031H5.46872V8.08594H3.8281V9.57031ZM5.78122 7.77344H7.38279V6.28906H5.78122V7.77344ZM7.69529 7.77344H9.33591V6.28906H7.69529V7.77344ZM9.60935 7.77344H11.25V6.28906H9.60935V7.77344ZM9.60935 5.97656H11.25V4.49219H9.60935V5.97656ZM18.4375 8.90625C18.4375 8.90625 17.7343 8.24219 16.289 8.47656C16.1328 7.34375 14.9218 6.67969 14.9218 6.67969C14.9218 6.67969 13.789 8.04688 14.6093 9.57031C14.375 9.6875 13.9843 9.84375 13.3984 9.84375H2.65622C2.46091 10.5859 2.46091 15.5078 7.85154 15.5078C11.7187 15.5078 14.6093 13.7109 15.9765 10.4297C18.0078 10.5859 18.4375 8.90625 18.4375 8.90625Z" fill="white"></path></svg> 