<?xml version="1.0" encoding="UTF-8"?> <svg xmlns="http://www.w3.org/2000/svg" width="20" height="20" viewBox="0 0 20 20" fill="none"><path d="M0 20H20V0H0V20Z" fill="#9C57A3"></path><path opacity="0.102" d="M15.7031 9.375H5.31253L4.65576 10.1915L3.86719 11.1719L10.3516 20H20V13.789L15.7031 9.375Z" fill="#010101"></path><path d="M11.5322 8.81848C11.5293 8.83205 11.5257 8.84924 11.5234 8.86063L11.4208 9.34039L11.5287 8.83493L11.5322 8.81848Z" fill="#5DA3C2"></path><path d="M8.4608 9.13965L8.40411 9.34012L8.4608 9.13973V9.13965Z" fill="#5DA3C2"></path><path d="M3.86108 11.1785V10.3657C4.012 10.4904 4.17574 10.584 4.35227 10.6464C4.52884 10.7088 4.70705 10.7399 4.88693 10.7399C4.9927 10.7399 5.08502 10.7298 5.16389 10.7098C5.24268 10.6898 5.30849 10.6621 5.36136 10.6267C5.41434 10.5914 5.45372 10.5497 5.4796 10.5018C5.50557 10.4539 5.51847 10.4019 5.51847 10.3456C5.51847 10.2732 5.49793 10.2085 5.45668 10.1514C5.41547 10.0944 5.35921 10.0416 5.28791 9.99316C5.21668 9.94466 5.13216 9.89787 5.03446 9.85273C4.93668 9.80762 4.83126 9.7617 4.71824 9.71495C4.42978 9.59402 4.21477 9.44618 4.07333 9.27133C3.93188 9.09647 3.86112 8.8854 3.86112 8.63807C3.86112 8.44427 3.90023 8.2778 3.97847 8.13858C4.05676 7.99936 4.16338 7.88458 4.29843 7.7944C4.43348 7.70419 4.58986 7.63791 4.76752 7.59557C4.94514 7.55327 5.1334 7.5321 5.33219 7.5321C5.52717 7.5321 5.69991 7.54364 5.8506 7.56672C6.00124 7.58988 6.14003 7.6254 6.26701 7.67324V8.44095C6.20518 8.39639 6.13781 8.35713 6.06479 8.32318C5.99188 8.28918 5.91668 8.26111 5.83925 8.23885C5.76186 8.21655 5.68498 8.20014 5.60869 8.18949C5.53239 8.17893 5.45972 8.17366 5.39067 8.17366C5.29652 8.17366 5.21079 8.18314 5.1334 8.20208C5.05602 8.22099 4.99067 8.24774 4.9375 8.28232C4.88432 8.31682 4.84307 8.35815 4.81383 8.40637C4.78459 8.45452 4.76997 8.5084 4.76997 8.56801C4.76997 8.63043 4.78627 8.68626 4.81882 8.73546C4.85142 8.78478 4.89781 8.83144 4.95793 8.87546C5.01808 8.91943 5.09106 8.96275 5.1768 9.00536C5.26257 9.04793 5.35945 9.09144 5.46756 9.13612C5.61512 9.19846 5.74767 9.26474 5.86514 9.33495C5.98264 9.40509 6.08346 9.48427 6.16759 9.57257C6.25165 9.66092 6.31598 9.76166 6.3605 9.87499C6.4051 9.98832 6.42732 10.1202 6.42732 10.2705C6.42732 10.4782 6.38752 10.6526 6.30791 10.7935C6.2283 10.9344 6.12023 11.0485 5.98381 11.1359C5.84736 11.2234 5.68869 11.2862 5.50767 11.3243C5.32666 11.3625 5.13566 11.3815 4.93461 11.3815C4.72798 11.3815 4.53153 11.3645 4.34522 11.3305C4.1589 11.2966 3.9975 11.2459 3.86108 11.1785Z" fill="white"></path><path d="M8.90332 9.83107L8.49904 8.57298C8.46898 8.4789 8.44835 8.36666 8.43724 8.23637H8.41553C8.40828 8.34662 8.38574 8.45497 8.34785 8.56132L7.94184 9.83103H8.90332V9.83107ZM10.29 11.3281H9.36613L9.128 10.5796H7.73295L7.49319 11.3281H6.57428L7.94512 7.58557H8.95085L10.29 11.3281Z" fill="white"></path><path d="M10.5974 11.1785V10.3657C10.7484 10.4904 10.912 10.584 11.0887 10.6464C11.2652 10.7088 11.4434 10.7399 11.6233 10.7399C11.7291 10.7399 11.8214 10.7298 11.9002 10.7098C11.979 10.6898 12.0449 10.6621 12.0978 10.6267C12.1507 10.5914 12.19 10.5497 12.2159 10.5018C12.2419 10.4539 12.2548 10.4019 12.2548 10.3456C12.2548 10.2732 12.2342 10.2085 12.193 10.1514C12.1518 10.0944 12.0955 10.0416 12.0243 9.99316C11.953 9.94466 11.8685 9.89787 11.7707 9.85273C11.673 9.80762 11.5675 9.7617 11.4545 9.71495C11.1661 9.59402 10.9511 9.44618 10.8096 9.27133C10.6682 9.09647 10.5975 8.8854 10.5975 8.63807C10.5975 8.44427 10.6366 8.2778 10.7149 8.13858C10.7931 7.99936 10.8997 7.88458 11.0348 7.7944C11.1698 7.70419 11.3262 7.63791 11.5039 7.59557C11.6815 7.55327 11.8697 7.5321 12.0685 7.5321C12.2635 7.5321 12.4362 7.54364 12.5868 7.56672C12.7375 7.58988 12.8764 7.6254 13.0034 7.67324V8.44095C12.9415 8.39639 12.8742 8.35713 12.8012 8.32318C12.7282 8.28918 12.653 8.26111 12.5756 8.23885C12.4982 8.21655 12.4214 8.20014 12.345 8.18949C12.2688 8.17893 12.1961 8.17366 12.127 8.17366C12.0329 8.17366 11.9472 8.18314 11.8697 8.20208C11.7923 8.22099 11.727 8.24774 11.6738 8.28232C11.6206 8.31682 11.5794 8.35815 11.5502 8.40637C11.521 8.45452 11.5063 8.5084 11.5063 8.56801C11.5063 8.63043 11.5226 8.68626 11.5552 8.73546C11.5877 8.78478 11.6341 8.83144 11.6942 8.87546C11.7544 8.91943 11.8274 8.96275 11.9131 9.00536C11.9989 9.04793 12.0958 9.09144 12.2038 9.13612C12.3513 9.19846 12.4839 9.26474 12.6015 9.33495C12.719 9.40509 12.8198 9.48427 12.9039 9.57257C12.9879 9.66092 13.0522 9.76166 13.0968 9.87499C13.1414 9.98832 13.1637 10.1202 13.1637 10.2705C13.1637 10.4782 13.1239 10.6526 13.0442 10.7935C12.9646 10.9344 12.8566 11.0485 12.7201 11.1359C12.5836 11.2234 12.4249 11.2862 12.244 11.3243C12.063 11.3624 11.872 11.3815 11.6709 11.3815C11.4642 11.3815 11.2678 11.3645 11.0815 11.3305C10.8953 11.2966 10.7339 11.2459 10.5974 11.1785Z" fill="white"></path><path d="M13.5914 11.1785V10.3657C13.7423 10.4904 13.9061 10.584 14.0825 10.6464C14.2592 10.7088 14.4374 10.7399 14.6172 10.7399C14.723 10.7399 14.8154 10.7298 14.8942 10.7098C14.973 10.6898 15.0388 10.6621 15.0917 10.6267C15.1445 10.5914 15.184 10.5497 15.2099 10.5018C15.2358 10.4539 15.2487 10.4019 15.2487 10.3456C15.2487 10.2732 15.2282 10.2085 15.1869 10.1514C15.1457 10.0944 15.0895 10.0416 15.0182 9.99316C14.9469 9.94466 14.8624 9.89787 14.7646 9.85273C14.6669 9.80762 14.5615 9.7617 14.4485 9.71495C14.16 9.59402 13.945 9.44618 13.8036 9.27133C13.6622 9.09647 13.5915 8.8854 13.5915 8.63807C13.5915 8.44427 13.6306 8.2778 13.7088 8.13858C13.787 7.99936 13.8937 7.88458 14.0288 7.7944C14.1638 7.70419 14.3201 7.63791 14.4978 7.59557C14.6754 7.55327 14.8637 7.5321 15.0625 7.5321C15.2574 7.5321 15.4302 7.54364 15.5808 7.56672C15.7314 7.58988 15.8703 7.6254 15.9972 7.67324V8.44095C15.9354 8.39639 15.8681 8.35713 15.7951 8.32318C15.7222 8.28918 15.6469 8.26111 15.5696 8.23885C15.4922 8.21655 15.4153 8.20014 15.339 8.18949C15.2627 8.17893 15.1901 8.17366 15.121 8.17366C15.0269 8.17366 14.9411 8.18314 14.8636 8.20208C14.7863 8.22099 14.721 8.24774 14.6678 8.28232C14.6146 8.31682 14.5734 8.35815 14.5441 8.40637C14.5149 8.45452 14.5002 8.5084 14.5002 8.56801C14.5002 8.63043 14.5166 8.68626 14.5491 8.73546C14.5818 8.78478 14.6281 8.83144 14.6882 8.87546C14.7484 8.91943 14.8213 8.96275 14.9071 9.00536C14.9928 9.04793 15.0898 9.09144 15.1977 9.13612C15.3453 9.19846 15.4779 9.26474 15.5954 9.33495C15.7129 9.40509 15.8138 9.48427 15.8978 9.57257C15.9819 9.66092 16.0463 9.76166 16.0908 9.87499C16.1353 9.98832 16.1576 10.1202 16.1576 10.2705C16.1576 10.4782 16.1178 10.6526 16.0382 10.7935C15.9586 10.9344 15.8505 11.0485 15.714 11.1359C15.5776 11.2234 15.4189 11.2862 15.2379 11.3243C15.0569 11.3625 14.8659 11.3815 14.6648 11.3815C14.4582 11.3815 14.2618 11.3645 14.0755 11.3305C13.8892 11.2966 13.7278 11.2459 13.5914 11.1785Z" fill="white"></path></svg> 