<?xml version="1.0" encoding="UTF-8"?> <svg xmlns="http://www.w3.org/2000/svg" width="273" height="41" viewBox="0 0 273 41" fill="none"><g filter="url(#filter0_d_6_560)"><path d="M15.004 7.814C14.304 8.374 13.45 8.948 12.694 9.396C12.26 8.934 11.91 8.402 11.63 7.814H15.004ZM8.13 5.252H14.136V6.358H8.13V5.252ZM14.136 2.886V3.922H8.13V2.886H14.136ZM15.844 7.464V1.444H11.77V0.0999997H10.048V1.444H6.422V11.258C5.876 11.342 5.386 11.398 4.938 11.454L5.344 13.078C7.024 12.798 9.306 12.462 11.434 12.084L11.336 10.53C10.272 10.712 9.166 10.88 8.13 11.02V7.814H9.908C11.084 10.768 13.016 12.518 16.502 13.246C16.726 12.784 17.188 12.084 17.552 11.734C16.026 11.482 14.78 11.02 13.8 10.348C14.822 9.788 15.984 9.046 16.936 8.318L15.844 7.464ZM21.64 1.99L19.484 1.962C19.568 2.396 19.596 2.998 19.596 3.39C19.596 4.244 19.61 5.882 19.75 7.17C20.142 10.922 21.472 12.308 23.012 12.308C24.132 12.308 25.014 11.454 25.938 9.018L24.538 7.31C24.272 8.43 23.712 10.068 23.054 10.068C22.172 10.068 21.752 8.682 21.556 6.666C21.472 5.658 21.458 4.608 21.472 3.698C21.472 3.306 21.542 2.494 21.64 1.99ZM28.64 2.312L26.862 2.886C28.388 4.622 29.13 8.024 29.354 10.278L31.188 9.564C31.034 7.422 29.97 3.922 28.64 2.312ZM34.198 2.06V4.006C34.59 3.978 35.346 3.95 35.934 3.95H42.22V9.746H35.766C35.136 9.746 34.506 9.704 34.016 9.662V11.664C34.478 11.622 35.276 11.58 35.822 11.58H42.206C42.206 11.846 42.206 12.084 42.192 12.308H44.222C44.194 11.888 44.166 11.146 44.166 10.656V3.404C44.166 2.998 44.194 2.438 44.208 2.116C43.97 2.13 43.382 2.144 42.976 2.144H35.92C35.444 2.144 34.716 2.116 34.198 2.06ZM47.288 5.518V7.716C47.806 7.674 48.744 7.646 49.542 7.646H57.06C57.648 7.646 58.362 7.702 58.698 7.716V5.518C58.334 5.546 57.718 5.602 57.06 5.602H49.542C48.814 5.602 47.792 5.56 47.288 5.518ZM69.548 1.584L68.372 2.074C68.89 2.802 69.198 3.362 69.604 4.244L70.822 3.698C70.5 3.068 69.94 2.172 69.548 1.584ZM71.382 0.814L70.22 1.36C70.738 2.06 71.074 2.578 71.522 3.46L72.698 2.886C72.376 2.256 71.788 1.374 71.382 0.814ZM63.962 10.866C63.962 11.412 63.906 12.266 63.822 12.812H66.02C65.95 12.238 65.88 11.258 65.88 10.866V6.904C67.392 7.408 69.492 8.22 70.948 8.99L71.732 7.044C70.444 6.414 67.742 5.42 65.88 4.86V2.816C65.88 2.228 65.95 1.612 66.006 1.122H63.822C63.92 1.626 63.962 2.312 63.962 2.816V10.866ZM87.132 0.0719992L74.392 12.812L74.868 13.288L87.608 0.548L87.132 0.0719992ZM94.244 6.596H95.574V7.338H94.244V6.596ZM91.388 5.322V4.062H92.648V5.322H91.388ZM94.244 2.046H95.574V2.802H94.244V2.046ZM95.574 5.322H94.244V4.062H95.574V5.322ZM98.514 4.062V5.322H97.184V4.062H98.514ZM93.152 9.186C94.02 9.62 95.028 10.306 95.504 10.824L96.638 9.872C96.274 9.522 95.686 9.102 95.07 8.752H101.244V7.338H97.184V6.596H100.138V2.802H97.184V2.046H101.062V0.659999H88.994V2.046H92.648V2.802H89.862V6.596H92.648V7.338H88.77V8.752H93.684L93.152 9.186ZM89.932 12.84C90.8 12.154 91.318 11.062 91.654 9.998L90.156 9.41C89.876 10.362 89.302 11.272 88.504 11.846L89.932 12.84ZM94.496 11.524C93.894 11.524 93.782 11.482 93.782 11.132V9.662H92.13V11.16C92.13 12.56 92.522 13.008 94.314 13.008H96.442C97.744 13.008 98.206 12.63 98.402 11.076C97.94 10.978 97.24 10.74 96.918 10.488C96.862 11.398 96.764 11.524 96.288 11.524H94.496ZM97.604 10.04C98.584 10.838 99.648 11.986 100.04 12.798L101.496 11.874C101.034 11.02 99.928 9.928 98.934 9.2L97.604 10.04ZM105.64 1.99L103.484 1.962C103.568 2.396 103.596 2.998 103.596 3.39C103.596 4.244 103.61 5.882 103.75 7.17C104.142 10.922 105.472 12.308 107.012 12.308C108.132 12.308 109.014 11.454 109.938 9.018L108.538 7.31C108.272 8.43 107.712 10.068 107.054 10.068C106.172 10.068 105.752 8.682 105.556 6.666C105.472 5.658 105.458 4.608 105.472 3.698C105.472 3.306 105.542 2.494 105.64 1.99ZM112.64 2.312L110.862 2.886C112.388 4.622 113.13 8.024 113.354 10.278L115.188 9.564C115.034 7.422 113.97 3.922 112.64 2.312ZM118.198 2.06V4.006C118.59 3.978 119.346 3.95 119.934 3.95H126.22V9.746H119.766C119.136 9.746 118.506 9.704 118.016 9.662V11.664C118.478 11.622 119.276 11.58 119.822 11.58H126.206C126.206 11.846 126.206 12.084 126.192 12.308H128.222C128.194 11.888 128.166 11.146 128.166 10.656V3.404C128.166 2.998 128.194 2.438 128.208 2.116C127.97 2.13 127.382 2.144 126.976 2.144H119.92C119.444 2.144 118.716 2.116 118.198 2.06ZM131.288 5.518V7.716C131.806 7.674 132.744 7.646 133.542 7.646H141.06C141.648 7.646 142.362 7.702 142.698 7.716V5.518C142.334 5.546 141.718 5.602 141.06 5.602H133.542C132.814 5.602 131.792 5.56 131.288 5.518ZM153.548 1.584L152.372 2.074C152.89 2.802 153.198 3.362 153.604 4.244L154.822 3.698C154.5 3.068 153.94 2.172 153.548 1.584ZM155.382 0.814L154.22 1.36C154.738 2.06 155.074 2.578 155.522 3.46L156.698 2.886C156.376 2.256 155.788 1.374 155.382 0.814ZM147.962 10.866C147.962 11.412 147.906 12.266 147.822 12.812H150.02C149.95 12.238 149.88 11.258 149.88 10.866V6.904C151.392 7.408 153.492 8.22 154.948 8.99L155.732 7.044C154.444 6.414 151.742 5.42 149.88 4.86V2.816C149.88 2.228 149.95 1.612 150.006 1.122H147.822C147.92 1.626 147.962 2.312 147.962 2.816V10.866ZM158.966 2.396L159.148 4.314C160.772 3.964 163.628 3.656 164.944 3.516C163.992 4.23 162.858 5.826 162.858 7.842C162.858 10.88 165.63 12.448 168.57 12.644L169.228 10.726C166.848 10.6 164.692 9.774 164.692 7.464C164.692 5.798 165.966 3.992 167.66 3.544C168.402 3.362 169.606 3.362 170.362 3.348L170.348 1.556C169.354 1.598 167.828 1.682 166.386 1.808C163.824 2.018 161.514 2.228 160.338 2.326C160.072 2.354 159.526 2.382 158.966 2.396ZM168.36 4.72L167.324 5.154C167.772 5.784 168.066 6.33 168.416 7.1L169.48 6.624C169.214 6.078 168.71 5.224 168.36 4.72ZM169.928 4.076L168.906 4.552C169.354 5.168 169.676 5.686 170.054 6.442L171.104 5.938C170.81 5.392 170.278 4.566 169.928 4.076ZM174.534 3.824H183.466V5.756H185.104V2.354H183.242C183.62 1.864 184.04 1.304 184.418 0.771999L182.612 0.226C182.346 0.884 181.87 1.696 181.408 2.354H179.294L179.966 2.088C179.784 1.528 179.322 0.674 178.874 0.0719992L177.404 0.604C177.74 1.136 178.09 1.808 178.286 2.354H176.088L176.592 2.116C176.368 1.57 175.808 0.827999 175.318 0.282L173.904 0.911999C174.24 1.346 174.618 1.892 174.87 2.354H172.966V5.756H174.534V3.824ZM185.244 8.038H179.952C181.1 7.38 182.192 6.484 182.99 5.63L181.94 4.818L181.576 4.902H175.29V6.344H180.036C179.7 6.624 179.322 6.89 178.958 7.114H178.16V8.038H172.784V9.564H178.16V11.384C178.16 11.58 178.09 11.636 177.796 11.636C177.516 11.65 176.48 11.65 175.584 11.608C175.836 12.056 176.158 12.756 176.27 13.232C177.46 13.232 178.328 13.204 178.986 12.966C179.672 12.728 179.854 12.294 179.854 11.426V9.564H185.244V8.038ZM192.356 4.244L193.476 5.266C194.05 4.874 195.128 4.006 195.506 3.698L195.086 2.606C194.134 2.018 192.636 1.374 191.474 0.94L190.438 2.228C191.488 2.62 192.622 3.194 193.238 3.6C193.042 3.754 192.692 4.02 192.356 4.244ZM189.976 10.698L190.228 12.546C190.914 12.672 191.726 12.756 192.496 12.756C193.952 12.756 195.282 12.196 195.282 10.32C195.282 9.032 194.456 7.772 192.958 6.274C192.594 5.896 192.23 5.546 191.824 5.14L190.452 6.274C190.914 6.624 191.39 7.044 191.74 7.38C192.37 8.01 193.336 9.27 193.336 10.124C193.336 10.782 192.846 11.034 192.132 11.034C191.46 11.034 190.732 10.922 189.976 10.698ZM197.732 11.776L199.426 10.866C199.006 9.564 197.914 7.436 197.032 6.358L195.52 7.17C196.458 8.332 197.382 10.376 197.732 11.776ZM190.816 9.116L189.766 7.758C188.926 8.654 187.4 9.844 186.196 10.502L187.26 12C188.758 11.09 190.032 9.956 190.816 9.116ZM196.92 2.48L195.814 2.928C196.192 3.474 196.626 4.314 196.92 4.888L198.04 4.398C197.774 3.88 197.284 2.998 196.92 2.48ZM198.586 1.85L197.48 2.298C197.858 2.83 198.32 3.642 198.6 4.23L199.72 3.754C199.468 3.264 198.95 2.368 198.586 1.85ZM205.404 0.575999H201.176V1.836H205.404V0.575999ZM205.936 2.452H200.462V3.768H205.936V2.452ZM205.432 6.316H201.12V7.562H205.432V6.316ZM210.78 7.646C210.444 8.36 210.01 8.99 209.464 9.536C208.904 8.976 208.442 8.346 208.106 7.646H210.78ZM203.976 11.174H202.492V9.564H203.976V11.174ZM211.83 6.078L211.55 6.148H206.622C208.078 5.154 208.358 3.558 208.358 2.242V2.004H209.926V3.698C209.926 5.084 210.248 5.518 211.368 5.518H212.18C213.118 5.518 213.482 5.028 213.622 3.292C213.216 3.18 212.572 2.942 212.264 2.704C212.25 3.922 212.194 4.104 212.012 4.104H211.662C211.508 4.104 211.48 4.062 211.48 3.67V0.533999H206.79V2.2C206.79 3.138 206.636 4.244 205.432 5.07V4.398H201.12V5.672H205.432V5.14C205.768 5.364 206.356 5.868 206.594 6.148H206.118V7.646H208.064L206.636 8.108C207.07 9.018 207.602 9.83 208.246 10.53C207.42 11.076 206.468 11.468 205.418 11.734V8.248H201.078V13.022H202.492V12.476H205.418V11.762C205.726 12.14 206.118 12.798 206.286 13.204C207.476 12.84 208.554 12.336 209.492 11.678C210.374 12.336 211.396 12.854 212.572 13.204C212.81 12.77 213.286 12.112 213.65 11.762C212.572 11.496 211.592 11.09 210.766 10.558C211.732 9.508 212.474 8.178 212.922 6.484L211.83 6.078ZM219.656 0.575999H215.218V1.836H219.656V0.575999ZM220.188 2.452H214.462V3.768H220.188V2.452ZM218.13 9.564V11.174H216.534V9.564H218.13ZM219.586 8.248H215.092V13.022H216.534V12.476H219.586V8.248ZM215.134 7.562H219.628V6.316H215.134V7.562ZM215.134 5.672H219.628V4.398H215.134V5.672ZM227.664 4.818H224.738V0.197999H223.058V4.818H220.132V6.47H223.058V13.218H224.738V6.47H227.664V4.818ZM231.234 0.926V2.62H234.426C234.468 3.096 234.524 3.6 234.622 4.132L233.768 3.978C232.998 7.66 231.332 10.362 228.42 11.832C228.854 12.154 229.638 12.84 229.946 13.19C232.382 11.734 234.062 9.41 235.112 6.274C235.882 8.78 237.366 11.426 240.264 13.176C240.558 12.742 241.244 12.014 241.608 11.72C236.456 8.682 236.078 3.572 236.078 0.926H231.234ZM246.928 2.046V2.774H244.8V2.046H246.928ZM244.8 4.762V3.964H246.928V4.762H244.8ZM248.482 0.701999H243.148V13.218H244.8V6.092H248.482V0.701999ZM251.044 4.79V3.964H253.256V4.79H251.044ZM253.256 2.046V2.774H251.044V2.046H253.256ZM254.936 0.701999H249.462V6.134H253.256V11.174C253.256 11.44 253.158 11.538 252.864 11.538C252.57 11.538 251.534 11.552 250.652 11.496C250.904 11.944 251.17 12.728 251.24 13.204C252.598 13.204 253.522 13.176 254.124 12.896C254.74 12.644 254.936 12.154 254.936 11.202V0.701999ZM268.978 7.072C268.978 4.02 266.794 1.612 263.322 1.612C259.696 1.612 256.896 4.37 256.896 7.604C256.896 9.97 258.184 11.678 259.738 11.678C261.264 11.678 262.468 9.942 263.308 7.114C263.714 5.798 263.952 4.51 264.148 3.32C266.038 3.642 267.088 5.084 267.088 7.016C267.088 9.06 265.688 10.348 263.896 10.768C263.518 10.852 263.126 10.936 262.594 10.992L263.644 12.658C267.172 12.112 268.978 10.026 268.978 7.072ZM258.688 7.422C258.688 5.882 259.934 3.838 262.244 3.362C262.09 4.524 261.824 5.714 261.502 6.75C260.928 8.64 260.382 9.522 259.794 9.522C259.248 9.522 258.688 8.836 258.688 7.422ZM10.118 26.086H8.844V25.204H10.118V26.086ZM7.136 21.76H11.742C11.966 23.118 12.33 24.35 12.792 25.358C12.386 25.764 11.952 26.128 11.476 26.436V24.14H7.514V27.164H10.286L9.334 27.962C10.104 28.424 11.014 29.138 11.42 29.67L12.568 28.69C12.148 28.2 11.322 27.57 10.58 27.164H11.476V26.912C11.784 27.192 12.134 27.556 12.302 27.794C12.764 27.486 13.198 27.122 13.618 26.716C14.22 27.472 14.934 27.92 15.732 27.92C16.838 27.92 17.328 27.458 17.566 25.47C17.174 25.344 16.656 25.05 16.306 24.742C16.236 25.946 16.124 26.408 15.816 26.422C15.424 26.422 15.032 26.1 14.654 25.54C15.326 24.63 15.886 23.608 16.278 22.474L14.738 22.11C14.528 22.768 14.234 23.384 13.884 23.958C13.66 23.3 13.45 22.558 13.31 21.76H17.118V20.444H15.83L16.25 19.94C15.816 19.59 14.962 19.212 14.304 19.016L13.478 19.926C13.842 20.066 14.248 20.248 14.612 20.444H13.114C13.072 20.024 13.044 19.576 13.03 19.142H11.476C11.49 19.576 11.518 20.01 11.56 20.444H5.61V22.544C5.61 23.958 5.484 25.918 4.336 27.304C4.658 27.472 5.302 28.018 5.54 28.312C6.87 26.73 7.136 24.294 7.136 22.572V21.76ZM11.574 22.404H7.458V23.468H11.574V22.404ZM5.834 31.924C6.786 31.182 7.332 30.02 7.654 28.858L6.17 28.326C5.89 29.362 5.288 30.356 4.462 31L5.834 31.924ZM10.454 30.552C9.81 30.552 9.698 30.51 9.698 30.132V28.34H8.046V30.146C8.046 31.588 8.466 32.036 10.272 32.036H12.512C13.87 32.036 14.332 31.616 14.514 29.894C14.08 29.796 13.366 29.558 13.058 29.306C12.988 30.412 12.89 30.552 12.358 30.552H10.454ZM13.912 28.816C14.822 29.698 15.732 30.93 16.04 31.784L17.552 31.028C17.188 30.118 16.222 28.942 15.312 28.116L13.912 28.816ZM26.624 25.232H29.2V26.072H26.624V25.232ZM26.624 23.202H29.2V24.014H26.624V23.202ZM26.624 21.158H29.2V21.97H26.624V21.158ZM23.684 27.92C24.314 28.508 25.14 29.362 25.532 29.866L26.736 28.858C26.4 28.466 25.798 27.878 25.252 27.374H30.796V19.842H25.112V27.248L24.832 26.996L23.684 27.92ZM21.01 27.542H22.592V24.616C23.096 25.078 23.614 25.582 23.936 25.932L24.804 24.602C24.482 24.336 23.152 23.384 22.592 23.062V22.544H24.566V21.13H22.592V19.156H21.01V21.13H18.714V22.544H20.744C20.198 23.762 19.288 24.98 18.364 25.666C18.7 25.932 19.19 26.45 19.428 26.814C20.002 26.31 20.534 25.61 21.01 24.784V27.542ZM19.988 31.448C20.478 30.636 20.884 29.39 21.164 28.396L19.68 27.808C19.442 28.802 18.966 29.95 18.462 30.692L19.988 31.448ZM24.216 30.468C23.46 30.468 23.32 30.412 23.32 29.992V28.102H21.668V30.02C21.668 31.476 22.158 31.938 24.062 31.938H26.582C28.122 31.938 28.584 31.448 28.794 29.446C28.332 29.362 27.632 29.124 27.296 28.858C27.212 30.272 27.114 30.468 26.456 30.468H24.216ZM28.402 28.298C28.948 29.236 29.718 30.468 30.054 31.21L31.608 30.412C31.23 29.684 30.418 28.494 29.858 27.626L28.402 28.298ZM36.62 19.842L34.87 20.556C35.5 22.04 36.172 23.538 36.816 24.728C35.472 25.722 34.492 26.884 34.492 28.424C34.492 30.832 36.606 31.602 39.392 31.602C41.212 31.602 42.696 31.462 43.886 31.252L43.914 29.236C42.668 29.544 40.778 29.754 39.336 29.754C37.39 29.754 36.424 29.222 36.424 28.214C36.424 27.234 37.208 26.436 38.37 25.666C39.644 24.84 41.408 24.028 42.276 23.594C42.794 23.328 43.242 23.09 43.662 22.838L42.696 21.214C42.332 21.522 41.926 21.76 41.394 22.068C40.736 22.446 39.518 23.048 38.37 23.72C37.81 22.642 37.152 21.298 36.62 19.842ZM50.928 20.626C50.34 20.136 49.15 19.534 48.254 19.198L47.344 20.444C48.254 20.822 49.416 21.494 49.948 21.984L50.928 20.626ZM50.004 24.294C49.402 23.832 48.184 23.272 47.274 22.964L46.42 24.224C47.344 24.588 48.52 25.204 49.08 25.694L50.004 24.294ZM49.654 26.52C48.828 28.144 47.764 29.88 47.008 30.93L48.422 32.05C49.262 30.692 50.144 29.096 50.886 27.64L49.654 26.52ZM55.926 30.188V27.626H58.754V26.058H55.926V23.762H59.258V22.166H56.038L56.85 21.2C56.136 20.514 54.666 19.632 53.532 19.114L52.426 20.402C53.35 20.864 54.428 21.55 55.156 22.166H51.012V23.762H54.19V26.058H51.516V27.626H54.19V30.188H50.522V31.756H59.552V30.188H55.926ZM68.75 21.172C68.638 21.466 68.47 21.816 68.344 22.082L68.54 22.124H65.432L65.614 22.082C65.544 21.844 65.418 21.494 65.278 21.172H68.75ZM73.076 22.124H69.982C70.164 21.872 70.36 21.564 70.57 21.214L70.36 21.172H72.334V19.884H67.812V19.142H66.16V19.884H61.652V21.172H63.682L63.612 21.186C63.738 21.48 63.878 21.83 63.962 22.124H60.966V23.412H73.076V22.124ZM61.722 31.938C62.702 31.28 63.276 30.244 63.654 29.18L62.254 28.69C61.932 29.614 61.288 30.51 60.42 31.056L61.722 31.938ZM64.018 26.576H70.066V27.206H64.018V26.576ZM64.018 25.008H70.066V25.624H64.018V25.008ZM66.384 30.734C65.754 30.734 65.642 30.692 65.642 30.314V28.914C66.384 29.25 67.196 29.74 67.616 30.118L68.624 29.082C68.274 28.816 67.728 28.494 67.168 28.228H71.718V23.986H62.436V28.228H65.936L65.362 28.788L65.53 28.858H64.018V30.328C64.018 31.658 64.452 32.064 66.216 32.064H68.47C69.772 32.064 70.22 31.672 70.402 30.118C69.968 30.034 69.31 29.81 68.988 29.586C68.918 30.58 68.834 30.734 68.316 30.734H66.384ZM69.996 29.236C70.85 30.006 71.802 31.112 72.194 31.854L73.566 31.056C73.146 30.258 72.138 29.236 71.284 28.522L69.996 29.236ZM84.178 26.576H77.752V24.798H84.178V26.576ZM85.872 23.258H81.784V21.928H86.796V20.374H81.784V19.142H80.09V23.258H76.17V28.116H85.872V23.258ZM75.974 32.162C76.716 31.42 77.388 30.202 77.794 29.082L76.184 28.69C75.792 29.698 75.12 30.804 74.434 31.42L75.974 32.162ZM78.48 29.18C78.648 30.146 78.76 31.392 78.76 32.12L80.454 31.91C80.426 31.182 80.272 29.978 80.062 29.026L78.48 29.18ZM81.336 29.194C81.742 30.118 82.162 31.322 82.316 32.05L83.926 31.63C83.758 30.902 83.296 29.74 82.862 28.858L81.336 29.194ZM84.178 29.11C84.85 30.048 85.606 31.322 85.9 32.12L87.51 31.504C87.16 30.678 86.348 29.46 85.676 28.578L84.178 29.11Z" fill="black"></path></g><defs><filter id="filter0_d_6_560" x="0.335999" y="0.0720215" width="272.642" height="40.09" filterUnits="userSpaceOnUse" color-interpolation-filters="sRGB"><feFlood flood-opacity="0" result="BackgroundImageFix"></feFlood><feColorMatrix in="SourceAlpha" type="matrix" values="0 0 0 0 0 0 0 0 0 0 0 0 0 0 0 0 0 0 127 0" result="hardAlpha"></feColorMatrix><feOffset dy="4"></feOffset><feGaussianBlur stdDeviation="2"></feGaussianBlur><feComposite in2="hardAlpha" operator="out"></feComposite><feColorMatrix type="matrix" values="0 0 0 0 0 0 0 0 0 0 0 0 0 0 0 0 0 0 0.25 0"></feColorMatrix><feBlend mode="normal" in2="BackgroundImageFix" result="effect1_dropShadow_6_560"></feBlend><feBlend mode="normal" in="SourceGraphic" in2="effect1_dropShadow_6_560" result="shape"></feBlend></filter></defs></svg> 