<?xml version="1.0" encoding="UTF-8"?> <svg xmlns="http://www.w3.org/2000/svg" width="21" height="20" viewBox="0 0 21 20" fill="none"><g clip-path="url(#clip0_6_278)"><path d="M0 20H21V0H0V20Z" fill="#3558A8"></path><path opacity="0.102" d="M15.9551 8.78906H3.89655L3.32233 11.4844L13.8223 20H21.0001V12.8906L15.9551 8.78906Z" fill="#010101"></path><path d="M13.1158 8.92017L13.128 8.96935C13.1315 8.98349 13.1221 8.99489 13.1069 8.99489" fill="#5DA3C2"></path><path d="M12.1325 8.83569C12.1294 8.84929 12.1258 8.86651 12.1232 8.87792L12.0154 9.35862L12.1288 8.85218L12.1325 8.83569Z" fill="#5DA3C2"></path><path d="M8.90123 9.15747L8.84167 9.35833L8.90123 9.15755V9.15747Z" fill="#5DA3C2"></path><path d="M15.9419 8.58581L15.8777 8.32713C15.8271 8.13991 15.6835 8.05139 15.3608 8.05139H14.0035C13.9722 8.05139 13.941 8.06483 13.9346 8.09397L13.4197 10.4198C13.4129 10.4492 13.411 10.4701 13.4145 10.4846C13.4182 10.4996 13.4785 10.4968 13.5095 10.4968H13.9796C14.0111 10.4968 14.0682 10.4991 14.0848 10.4927C14.1022 10.4859 14.1099 10.4415 14.1163 10.4122L14.2824 9.5967L14.4854 8.69213C14.492 8.66315 14.5228 8.63936 14.5539 8.63936L15.8984 8.6385C15.9294 8.6385 15.9491 8.61483 15.9419 8.58581Z" fill="white"></path><path d="M17.8546 7.64298C17.8231 7.64333 17.2583 7.64298 17.2583 7.64298C17.2271 7.64298 17.1869 7.67497 17.1695 7.69954L16.1228 9.16599C16.105 9.19063 16.0848 9.18974 16.0779 9.16075L16.0005 8.83935C15.9939 8.8102 15.9626 8.78645 15.931 8.78645H15.2583C15.2274 8.78645 15.2088 8.81106 15.2169 8.83981L15.5184 9.84657C15.5271 9.87544 15.5279 9.92247 15.5202 9.95134L15.3796 10.4613C15.3721 10.4902 15.3913 10.499 15.423 10.499H16.0872C16.1184 10.499 16.1507 10.4903 16.1583 10.4613L16.2991 9.94419C16.3068 9.91536 16.3284 9.87614 16.3471 9.85216L18.0552 7.69481C18.0745 7.67118 18.0716 7.64282 18.0405 7.64282L17.8546 7.64298Z" fill="white"></path><path d="M10.8509 8.05334H10.2438C10.2129 8.05334 10.1812 8.06373 10.175 8.09291L9.97436 8.98709L9.77449 9.84331C9.76809 9.87229 9.73712 9.8703 9.70583 9.8703H9.30687C8.91214 9.8703 8.95771 9.63284 9.03888 9.27686C9.03982 9.27331 9.29202 8.09291 9.29202 8.09291C9.29756 8.06381 9.27713 8.05334 9.24621 8.05334H8.66777C8.63651 8.05334 8.6055 8.06381 8.59943 8.09291L8.36675 9.27592C8.25068 9.91557 8.24715 10.4784 9.02604 10.497C9.03888 10.4974 10.2558 10.497 10.2558 10.497C10.2873 10.497 10.3182 10.4871 10.325 10.4583L10.5891 9.27198L10.8522 8.08069C10.8522 8.08065 10.8616 8.05334 10.8509 8.05334Z" fill="white"></path><path d="M4.80402 8.05139H4.15314C4.12193 8.05139 4.09043 8.05846 4.08354 8.08772L3.96607 8.57174C3.95939 8.60034 3.97936 8.62323 4.01086 8.62323H4.63409C4.66559 8.62323 4.69681 8.5962 4.70341 8.56733L4.81657 8.07967C4.81657 8.07967 4.8256 8.05139 4.80402 8.05139Z" fill="white"></path><path d="M3.96862 8.7865C3.93765 8.7865 3.90587 8.81005 3.89918 8.83915L3.81145 9.2083L3.61568 10.0608C3.61568 10.0608 3.51146 10.5141 3.50145 10.5424C3.50145 10.5424 3.41372 10.8696 3.20417 10.8565C3.10668 10.8504 2.99524 10.8291 2.99524 10.8291H2.99495C2.93642 10.8122 2.93232 10.8701 2.92514 10.8991L2.79586 11.4302C2.78844 11.4593 2.80845 11.4854 2.83938 11.4859C2.83938 11.4859 3.11964 11.5235 3.31746 11.5235H3.34998C3.83885 11.5235 4.09708 11.2497 4.26217 10.5065L4.45564 9.64611L4.63709 8.84564C4.64378 8.8165 4.62536 8.78947 4.59411 8.78947" fill="white"></path><path d="M12.6757 9.07105C12.6757 9.10339 12.5686 9.09726 12.5686 9.09726L11.715 9.09132C11.6855 9.09132 11.6771 9.05195 11.675 9.02382C11.675 9.02285 11.6772 8.99003 11.6797 8.98191C11.7457 8.7639 11.9425 8.63945 12.2546 8.63945C12.6057 8.63945 12.6807 8.80523 12.6807 8.98917L12.6757 9.07105ZM12.3871 8.04773C11.2923 8.04773 11.0309 8.69226 10.8855 9.33105C10.7401 9.98238 10.7525 10.4972 11.8854 10.4972H11.9263C12.3757 10.4972 12.9218 10.4972 12.9218 10.4972C12.9524 10.4967 12.9832 10.47 12.9893 10.441L13.1007 10.0279C13.1071 9.99859 13.0864 9.98996 13.0554 9.98996H12.0364C11.6674 9.98996 11.5353 9.88171 11.5482 9.63855C11.5479 9.61093 11.5812 9.5405 11.6124 9.5405H13.1818C13.2507 9.54011 13.253 9.50168 13.253 9.50168C13.4127 8.81492 13.4232 8.04773 12.3871 8.04773Z" fill="white"></path><path d="M7.07677 9.38996L6.95056 9.80062C6.94187 9.82945 6.90627 9.84863 6.87505 9.84863H6.22418C5.73027 9.84863 5.61021 9.48507 5.73027 8.94265C5.85085 8.38812 6.0896 8.045 6.57539 8.01027C7.23956 7.96257 7.37548 8.40933 7.21446 8.92277L7.07677 9.38996ZM7.65517 9.82511C7.65517 9.82511 7.9618 9.11574 8.03145 8.70566C8.12664 8.15703 7.83843 7.36121 6.72407 7.36121C5.61632 7.36121 5.13566 8.12089 4.95167 8.94691C4.76845 9.77882 5.00831 10.5031 6.10995 10.4973L7.79134 10.4963C7.82231 10.4962 7.85459 10.4723 7.8625 10.4439L8.00434 9.92984C8.01205 9.90082 7.99281 9.87722 7.96135 9.87714L7.82596 9.87617L7.69053 9.87562C7.66395 9.87535 7.64861 9.8589 7.65213 9.8371C7.65263 9.83316 7.65316 9.82917 7.65517 9.82511Z" fill="white"></path></g><defs><clipPath id="clip0_6_278"><rect width="21" height="20" fill="white"></rect></clipPath></defs></svg> 