<?xml version="1.0" encoding="UTF-8"?> <svg xmlns="http://www.w3.org/2000/svg" width="20" height="20" viewBox="0 0 20 20" fill="none"><path d="M15.5935 18.4303L8.642 20L1.58234 18.4303L0 3.7832H17L15.5935 18.4303Z" fill="#DC9E2D"></path><path d="M8.64197 4.92383V18.9272L14.3763 17.5382L15.5934 5.00288L8.64197 4.92383Z" fill="#E6B82C"></path><path d="M11.6849 0V0.688877H10.1702L11.6849 1.96499V2.61999H8.8448V1.96499H10.4407L8.81775 0.666291V0H11.6849Z" fill="#040000"></path><path d="M11.2928 9.58774H13.5108L13.105 5.7594H4.58475L3.88149 12.1513H11.144L10.9412 14.6019L8.66908 15.0988L5.9507 14.4663V13.1676H3.82739L4.03026 15.9006L8.5744 17.0412L13.0509 15.8554L13.5108 10.3896H6.15356L6.50519 7.48724H11.2387L11.2928 9.58774Z" fill="white"></path><path d="M8.12804 0.090332H7.03257V1.78429H5.50433V2.68774H8.12804V0.090332Z" fill="#040000"></path><path d="M10.9411 14.602L11.144 12.1514H8.64197V15.0989H8.66902L10.9411 14.602Z" fill="#E6B82C"></path><path d="M8.64197 4.92383V5.75951H13.105L13.5107 9.58786H11.2927L11.2386 7.48735H8.64197V10.3897H13.5107L13.0509 15.8555L8.64197 17.0187V18.9272L14.3763 17.5382L15.5934 5.00288L8.64197 4.92383Z" fill="#E6B82C"></path><path d="M5.9507 14.4664V13.1677H3.82739L4.03026 15.9006L8.5744 17.0412L8.64203 17.0187V15.0988L5.9507 14.4664Z" fill="#EBEDEF"></path><path d="M6.15354 10.3896L6.50517 7.48724H8.64201V5.7594H4.58473L3.88147 12.1513H8.64201V10.3896H6.15354Z" fill="#EBEDEF"></path><path d="M13.5107 10.3896H8.64197V12.1514H11.144L10.9411 14.602L8.66902 15.0989H8.64197V17.0187L13.0509 15.8555L13.5107 10.3896Z" fill="white"></path><path d="M11.2386 7.48724L11.2927 9.58774H13.5107L13.105 5.7594H8.64197V7.48724H11.2386Z" fill="white"></path></svg> 