<?xml version="1.0" encoding="UTF-8"?> <svg xmlns="http://www.w3.org/2000/svg" width="21" height="20" viewBox="0 0 21 20" fill="none"><path d="M20.5351 9.40065C20.3925 9.25796 18.562 6.95118 18.253 6.57068C17.9202 6.19018 17.7775 6.26153 17.5636 6.28531C17.3496 6.30909 15.0437 6.71337 14.7823 6.73715C14.5208 6.78471 14.3544 6.87984 14.5208 7.11765C14.6634 7.33168 16.1848 9.47199 16.5176 9.97139L10.4557 11.422L5.65373 3.36022C5.46355 3.07484 5.41601 2.97972 4.98811 3.0035C4.56021 3.02728 1.20833 3.31265 0.970604 3.31265C0.732882 3.33644 0.471387 3.43156 0.709109 4.00231C0.946831 4.57306 4.75038 12.7538 4.84547 12.9916C4.94056 13.2294 5.22583 13.6099 5.86768 13.4672C6.5333 13.3008 8.81543 12.7062 10.0754 12.3733C10.741 13.5624 12.0722 15.988 12.3337 16.3448C12.6665 16.8204 12.9042 16.7253 13.4035 16.5826C13.8076 16.4637 19.6318 14.3709 19.8933 14.252C20.1548 14.1331 20.3212 14.0618 20.131 13.8002C19.9884 13.6099 18.4669 11.541 17.6587 10.4708C18.2054 10.3281 20.1785 9.80493 20.3925 9.73358C20.6302 9.66224 20.6778 9.54333 20.5351 9.40065V9.40065ZM9.5286 11.6599C9.45728 11.6836 6.05785 12.4922 5.89145 12.5398C5.70127 12.5873 5.70127 12.5635 5.70127 12.4922C5.65373 12.4209 1.66 4.145 1.58868 4.04987C1.54114 3.95475 1.54114 3.85962 1.58868 3.85962C1.63623 3.85962 4.79793 3.57425 4.89302 3.57425C5.01188 3.57425 4.98811 3.59803 5.03565 3.66937C5.03565 3.66937 9.48105 11.3507 9.55237 11.4696C9.64746 11.5885 9.59991 11.6361 9.5286 11.6599V11.6599ZM19.085 13.4435C19.1326 13.5386 19.2039 13.5861 19.0137 13.6337C18.8473 13.705 13.2846 15.5838 13.1657 15.6313C13.0469 15.6789 12.9756 15.7027 12.8329 15.4886C12.6903 15.2746 10.8836 12.1593 10.8836 12.1593L16.8029 10.6135C16.9455 10.5659 16.9931 10.5421 17.0882 10.6848C17.1832 10.8513 19.0375 13.3721 19.085 13.4435ZM19.4654 9.25796C19.3227 9.28174 17.1595 9.82871 17.1595 9.82871L15.3766 7.40302C15.329 7.33168 15.2815 7.26034 15.4003 7.23655C15.5192 7.21277 17.5398 6.85606 17.6349 6.83227C17.73 6.80849 17.8013 6.78471 17.9202 6.95118C18.039 7.09387 19.5605 9.04393 19.6318 9.11527C19.7031 9.18661 19.608 9.23418 19.4654 9.25796Z" fill="#FB503B"></path></svg> 