<?xml version="1.0" encoding="UTF-8"?> <svg xmlns="http://www.w3.org/2000/svg" width="20" height="20" viewBox="0 0 20 20" fill="none"><path d="M19.9961 7.8534C19.9961 7.75707 19.9805 7.66492 19.9531 7.57696C19.9805 7.49738 19.9961 7.41361 19.9961 7.33403C19.9961 7.20838 19.9649 7.0911 19.918 6.99476V6.99058C19.9024 6.96126 19.8828 6.93194 19.8594 6.89843V4.5822C19.9492 4.44398 20 4.28063 20 4.10471C20 3.76544 19.8086 3.45969 19.5157 3.32984L12.271 0.0921466H12.2515C12.0992 0.0335078 11.943 0 11.7829 0C11.6266 0 11.4704 0.0335078 11.3181 0.0879581H11.2986L0.691271 4.67435L0.663933 4.6911C0.527241 4.76649 0.429604 4.87539 0.359305 4.97592C0.238235 5.15602 0.175747 5.3445 0.132787 5.52042V5.52461C0.0663933 5.79267 0.0351494 6.06492 0.0195274 6.29529C0.00390549 6.52147 0 6.71832 0 6.79791V6.83979C0 7.12042 0.0156219 7.48482 0.0742043 7.83665V7.84084C0.105448 8.01675 0.148409 8.19686 0.226518 8.37278V8.37696C0.265573 8.46492 0.316344 8.55288 0.382738 8.64084C0.386643 8.64921 0.394454 8.6534 0.402265 8.65759C0.386643 8.67435 0.367116 8.69529 0.355399 8.71204C0.234329 8.89215 0.171841 9.08063 0.128881 9.25236C0.0624878 9.52042 0.0312439 9.79267 0.0156219 10.023C0.00390549 10.266 0 10.4586 0 10.5382V10.5801C0 10.8607 0.0156219 11.2251 0.0742043 11.577V11.5812C0.105448 11.7571 0.148409 11.9372 0.226518 12.1131V12.1173C0.265573 12.201 0.316344 12.2932 0.382738 12.3812C0.394454 12.3979 0.413982 12.4105 0.429604 12.4272C0.406171 12.4565 0.374927 12.4859 0.355399 12.5152C0.234329 12.6953 0.171841 12.8838 0.128881 13.0555V13.0597C0.0624878 13.3277 0.0312439 13.6 0.0156219 13.8304C0.00390549 14.0691 0 14.2618 0 14.3455V14.3874C0 14.6681 0.0156219 15.0325 0.0742043 15.3843V15.3885C0.105448 15.5644 0.148409 15.7445 0.226518 15.9204V15.9246C0.265573 16.0084 0.316344 16.1005 0.382738 16.1885L0.378832 16.1843L0.386643 16.1927C0.453037 16.2764 0.542863 16.356 0.656122 16.4147H0.660027L0.675649 16.423L8.48272 19.8785L8.50225 19.8869C8.67409 19.9623 8.85765 20 9.04511 20C9.22476 20 9.40832 19.9623 9.58016 19.8869L19.5743 15.5309C19.6915 15.4806 19.7969 15.401 19.8828 15.2712C19.9609 15.1414 19.9922 15.0073 19.9961 14.8817C19.9961 14.756 19.9649 14.6387 19.918 14.5424V14.5382C19.9024 14.5089 19.8828 14.4796 19.8594 14.4461V12.1298C19.9492 11.9916 20 11.8283 20 11.6524C20 11.5476 19.9805 11.4429 19.9453 11.3466C19.9805 11.2544 20 11.1623 20 11.0743C20 10.9487 19.9688 10.8314 19.9219 10.7351V10.7309C19.9063 10.7016 19.8867 10.6723 19.8633 10.6387V8.32251C19.9414 8.19267 19.9961 8.02932 19.9961 7.8534ZM8.44757 18.9277L1.01152 15.6356L0.984183 15.6021C0.96075 15.5644 0.929506 15.489 0.906073 15.3969C0.870924 15.2586 0.843585 15.0827 0.827963 14.9026C0.812341 14.7225 0.808436 14.5424 0.808436 14.3874V14.3497C0.808436 14.2325 0.812341 13.8932 0.859207 13.5707C0.878735 13.4115 0.913884 13.2565 0.952939 13.1476L0.96075 13.1267L8.44757 16.3853V18.9277ZM8.44757 15.1246L1.67936 12.1298L1.00762 11.8325L0.980277 11.799C0.956844 11.7613 0.925601 11.6859 0.902168 11.5937C0.867018 11.4555 0.83968 11.2796 0.824058 11.0953C0.808436 10.9152 0.80453 10.7351 0.80453 10.5801V10.5466C0.80453 10.4293 0.808436 10.0901 0.855302 9.76754C0.874829 9.60838 0.909979 9.4534 0.949033 9.3445L0.956844 9.32356L8.44366 12.5822L8.44757 15.1246ZM8.44757 9.05131V9.20628V11.3843L1.60906 8.35602L1.01152 8.09215L0.984183 8.05864C0.96075 8.02094 0.929506 7.94555 0.906073 7.8534C0.870924 7.71518 0.843585 7.53927 0.827963 7.35497C0.812341 7.17487 0.808436 6.99476 0.808436 6.83979V6.80209C0.808436 6.68482 0.812341 6.34555 0.859207 6.02304C0.878735 5.86387 0.913884 5.7089 0.952939 5.6L0.96075 5.57906L8.44757 8.8377V9.05131ZM19.0471 14.8314L9.30287 19.0785L9.27553 19.0911C9.20133 19.1246 9.12322 19.1372 9.04511 19.1372C9.01777 19.1372 8.99043 19.133 8.95919 19.1288V16.5571C8.99434 16.5613 9.03339 16.5654 9.07245 16.5654C9.22086 16.5654 9.36536 16.5361 9.50205 16.4733L9.50986 16.4691L19.0471 12.2932V14.8314ZM19.0471 11.0157V11.0283L9.30287 15.2754L9.27553 15.288C9.20133 15.3215 9.12322 15.334 9.04511 15.334C9.01777 15.334 8.99043 15.3298 8.95919 15.3257V12.7539C8.99434 12.7581 9.03339 12.7623 9.07245 12.7623C9.22086 12.7623 9.36536 12.733 9.50205 12.6702L9.50986 12.666L16.2 9.73822L19.0471 8.49005V11.0157ZM19.0471 7.20838V7.28377L9.30287 11.5351L9.27553 11.5476C9.20133 11.5812 9.12322 11.5979 9.04511 11.5979C9.01777 11.5979 8.99043 11.5937 8.95919 11.5895V9.23979V9.0178C8.99434 9.02199 9.03339 9.02618 9.07245 9.02618C9.22086 9.02618 9.36536 8.99686 9.50205 8.93403L9.50986 8.92984L19.0471 4.75393V7.20838Z" fill="#3EA8FF"></path></svg> 