<?xml version="1.0" encoding="UTF-8"?> <svg xmlns="http://www.w3.org/2000/svg" width="21" height="20" viewBox="0 0 21 20" fill="none"><g clip-path="url(#clip0_8_51)"><path d="M10.7694 0C5.2536 0.0003125 0.770203 4.48441 0.769226 9.99984C0.770203 15.515 5.2536 19.999 10.7694 20C16.2845 19.999 20.7686 15.515 20.7692 9.99984C20.7686 4.48441 16.2845 0.0003125 10.7694 0ZM17.2042 16.4344C15.5536 18.0844 13.2801 19.1045 10.7694 19.1048C8.25829 19.1045 5.98458 18.0844 4.33454 16.4344C2.68454 14.7843 1.66481 12.5103 1.66446 9.99984C1.66477 7.48906 2.68454 5.21566 4.33454 3.56504C5.98458 1.91563 8.25829 0.895586 10.7694 0.895234C13.2802 0.895547 15.5536 1.91563 17.2042 3.565C18.8536 5.21563 19.8736 7.48871 19.874 9.9998C19.8736 12.5103 18.8536 14.7843 17.2042 16.4344Z" fill="#4B4B4B"></path><path d="M3.58292 6.79126H3.52648C3.09128 7.77243 2.84796 8.85708 2.84796 9.99974C2.84796 13.1176 4.64909 15.8131 7.26741 17.1059L3.58327 6.79126H3.58292Z" fill="#4B4B4B"></path><path d="M15.2679 7.1247C14.5849 6.16954 14.6862 4.21696 15.9421 4.00306C14.5539 2.80493 12.7468 2.07837 10.7694 2.07837C7.96104 2.07837 5.49573 3.54056 4.08905 5.74466H6.98866V6.79134H5.81995L8.52577 14.365L10.4238 9.29145L9.53014 6.7913H8.17831V5.74462H13.0308V6.7913H11.7669L14.4956 14.4309L15.8784 10.7366C16.1236 9.74087 15.9803 8.12372 15.2679 7.1247Z" fill="#4B4B4B"></path><path d="M18.133 7.08105C18.1299 7.11113 18.1268 7.14156 18.1224 7.17105C17.9308 8.45699 16.7398 11.2776 16.7398 11.2776L15.0155 15.8868L14.6307 16.9159C17.0528 15.561 18.6909 12.9727 18.6909 9.99977C18.6909 8.96844 18.4918 7.98445 18.133 7.08105Z" fill="#4B4B4B"></path><path d="M9.04502 15.8187L8.39404 17.5585C9.14412 17.7942 9.94154 17.9212 10.7694 17.9212C11.674 17.9212 12.5423 17.7679 13.3522 17.4882L10.9431 10.7439L9.04502 15.8187Z" fill="#4B4B4B"></path></g><defs><clipPath id="clip0_8_51"><rect width="20" height="20" fill="white" transform="translate(0.769226)"></rect></clipPath></defs></svg> 